<?xml version="1.0" standalone="no"?><!-- Generator: Gravit.io --><svg xmlns="http://www.w3.org/2000/svg" xmlns:xlink="http://www.w3.org/1999/xlink" style="isolation:isolate" viewBox="0 0 24 24" width="24" height="24"><defs><clipPath id="_clipPath_zoTZvsCyVM8N6sv5ln4G6Pbo8GzVm4mX"><rect width="24" height="24"/></clipPath></defs><g clip-path="url(#_clipPath_zoTZvsCyVM8N6sv5ln4G6Pbo8GzVm4mX)"><path d=" M 5.375 7 C 5.375 5.62 6.495 4.5 7.875 4.5 C 9.255 4.5 10.375 5.62 10.375 7 C 10.375 8.38 9.255 9.5 7.875 9.5 C 6.495 9.5 5.375 8.38 5.375 7 Z " fill="rgb(0,0,0)"/><path d=" M 5.658 9.913 C 2.943 10.869 1 13.46 1 16.5 L 8 16.5 L 15 16.5 C 15 13.403 12.985 10.773 10.195 9.851 C 9.501 10.264 8.724 10.5 7.9 10.5 C 7.115 10.5 6.33 10.286 5.658 9.913 Z " fill="rgb(0,0,0)"/><path d=" M 14.375 10 C 14.375 8.62 15.495 7.5 16.875 7.5 C 18.255 7.5 19.375 8.62 19.375 10 C 19.375 11.38 18.255 12.5 16.875 12.5 C 15.495 12.5 14.375 11.38 14.375 10 Z " fill="rgb(0,0,0)"/><path d=" M 14.735 12.963 C 12.541 13.843 11 15.993 11 18.5 L 17 18.5 L 23 18.5 C 23 15.936 21.389 13.746 19.117 12.901 C 18.442 13.282 17.693 13.5 16.9 13.5 C 16.146 13.5 15.393 13.303 14.735 12.963 Z " fill="rgb(0,0,0)"/></g></svg>