<?xml version="1.0" standalone="no"?><!-- Generator: Gravit.io --><svg xmlns="http://www.w3.org/2000/svg" xmlns:xlink="http://www.w3.org/1999/xlink" style="isolation:isolate" viewBox="0 0 24 24" width="24" height="24"><defs><clipPath id="_clipPath_a2Ts9Ytmi1he66lH7xQYMKRis9ochVW6"><rect width="24" height="24"/></clipPath></defs><g clip-path="url(#_clipPath_a2Ts9Ytmi1he66lH7xQYMKRis9ochVW6)"><path d=" M 9 12.5 L 15 12.5 C 15.552 12.5 16 12.948 16 13.5 L 16 13.5 C 16 14.052 15.552 14.5 15 14.5 L 9 14.5 C 8.448 14.5 8 14.052 8 13.5 L 8 13.5 C 8 12.948 8.448 12.5 9 12.5 Z " fill="rgb(46,46,46)"/><path d=" M 9 6.5 L 15 6.5 C 15.552 6.5 16 6.948 16 7.5 L 16 7.5 C 16 8.052 15.552 8.5 15 8.5 L 9 8.5 C 8.448 8.5 8 8.052 8 7.5 L 8 7.5 C 8 6.948 8.448 6.5 9 6.5 Z " fill="rgb(46,46,46)"/><path d=" M 5 9.5 L 19 9.5 C 19.552 9.5 20 9.948 20 10.5 L 20 10.5 C 20 11.052 19.552 11.5 19 11.5 L 5 11.5 C 4.448 11.5 4 11.052 4 10.5 L 4 10.5 C 4 9.948 4.448 9.5 5 9.5 Z " fill="rgb(46,46,46)"/><path d=" M 5 15.5 L 19 15.5 C 19.552 15.5 20 15.948 20 16.5 L 20 16.5 C 20 17.052 19.552 17.5 19 17.5 L 5 17.5 C 4.448 17.5 4 17.052 4 16.5 L 4 16.5 C 4 15.948 4.448 15.5 5 15.5 Z " fill="rgb(46,46,46)"/></g></svg>