<?xml version="1.0" standalone="no"?><!-- Generator: Gravit.io --><svg xmlns="http://www.w3.org/2000/svg" xmlns:xlink="http://www.w3.org/1999/xlink" style="isolation:isolate" viewBox="0 0 24 24" width="24" height="24"><defs><clipPath id="_clipPath_of3U1KvaYPptz7g2q1eB0J040uXM1yPY"><rect width="24" height="24"/></clipPath></defs><g clip-path="url(#_clipPath_of3U1KvaYPptz7g2q1eB0J040uXM1yPY)"><path d=" M 5 6.5 L 19 6.5 C 19.552 6.5 20 6.948 20 7.5 L 20 7.5 C 20 8.052 19.552 8.5 19 8.5 L 5 8.5 C 4.448 8.5 4 8.052 4 7.5 L 4 7.5 C 4 6.948 4.448 6.5 5 6.5 Z " fill="rgb(46,46,46)"/><path d=" M 5 9.5 L 19 9.5 C 19.552 9.5 20 9.948 20 10.5 L 20 10.5 C 20 11.052 19.552 11.5 19 11.5 L 5 11.5 C 4.448 11.5 4 11.052 4 10.5 L 4 10.5 C 4 9.948 4.448 9.5 5 9.5 Z " fill="rgb(46,46,46)"/><path d=" M 5 12.5 L 19 12.5 C 19.552 12.5 20 12.948 20 13.5 L 20 13.5 C 20 14.052 19.552 14.5 19 14.5 L 5 14.5 C 4.448 14.5 4 14.052 4 13.5 L 4 13.5 C 4 12.948 4.448 12.5 5 12.5 Z " fill="rgb(46,46,46)"/><path d=" M 5 15.5 L 19 15.5 C 19.552 15.5 20 15.948 20 16.5 L 20 16.5 C 20 17.052 19.552 17.5 19 17.5 L 5 17.5 C 4.448 17.5 4 17.052 4 16.5 L 4 16.5 C 4 15.948 4.448 15.5 5 15.5 Z " fill="rgb(46,46,46)"/></g></svg>