<?xml version="1.0" standalone="no"?><!-- Generator: Gravit.io --><svg xmlns="http://www.w3.org/2000/svg" xmlns:xlink="http://www.w3.org/1999/xlink" style="isolation:isolate" viewBox="0 0 24 24" width="24" height="24"><defs><clipPath id="_clipPath_6E5GUidCCwg4pfe0QSnbeymyY3iPJWdh"><rect width="24" height="24"/></clipPath></defs><g clip-path="url(#_clipPath_6E5GUidCCwg4pfe0QSnbeymyY3iPJWdh)"><g id="Group"><path d=" M 4 6.5 L 20 6.5 L 20 19.5 C 20 20.604 19.104 21.5 18 21.5 L 6 21.5 C 4.896 21.5 4 20.604 4 19.5 L 4 6.5 Z  M 6 8.808 L 18 8.808 L 18 19.192 L 6 19.192 L 6 8.808 Z " fill-rule="evenodd" fill="rgb(46,46,46)"/><path d=" M 3 2.5 L 21 2.5 C 22.104 2.5 23 3.396 23 4.5 L 23 6.5 C 23 7.604 22.104 8.5 21 8.5 L 18.188 8.5 L 3 8.5 C 1.896 8.5 1 7.604 1 6.5 L 1 4.5 C 1 3.396 1.896 2.5 3 2.5 Z  M 3.5 4.5 L 20.5 4.5 C 20.776 4.5 21 4.724 21 5 L 21 6 C 21 6.276 20.776 6.5 20.5 6.5 L 3.5 6.5 C 3.224 6.5 3 6.276 3 6 L 3 5 C 3 4.724 3.224 4.5 3.5 4.5 Z " fill-rule="evenodd" fill="rgb(46,46,46)"/></g></g></svg>