<?xml version="1.0" standalone="no"?><!-- Generator: Gravit.io --><svg xmlns="http://www.w3.org/2000/svg" xmlns:xlink="http://www.w3.org/1999/xlink" style="isolation:isolate" viewBox="0 0 24 24" width="24" height="24"><defs><clipPath id="_clipPath_OEyadXCAekOZMIQJHX2ho52Pcfcbjwx0"><rect width="24" height="24"/></clipPath></defs><g clip-path="url(#_clipPath_OEyadXCAekOZMIQJHX2ho52Pcfcbjwx0)"><path d=" M 1 12 C 1 5.929 5.929 1 12 1 C 18.071 1 23 5.929 23 12 C 23 18.071 18.071 23 12 23 C 5.929 23 1 18.071 1 12 Z  M 3 12 C 3 7.033 7.033 3 12 3 C 16.967 3 21 7.033 21 12 C 21 16.967 16.967 21 12 21 C 7.033 21 3 16.967 3 12 Z " fill-rule="evenodd" fill="rgb(46,46,46)"/><path d=" M 13.165 9.418 L 9.574 9.418 C 9.023 9.418 8.574 8.97 8.574 8.418 L 8.574 8.418 C 8.574 7.866 9.023 7.418 9.574 7.418 L 14.591 7.418 L 14.591 7.412 L 15.591 7.412 C 16.143 7.412 16.591 7.86 16.591 8.412 L 16.591 14.412 C 16.591 14.964 16.143 15.412 15.591 15.412 L 15.591 15.412 C 15.039 15.412 14.591 14.964 14.591 14.412 L 14.591 10.821 L 9.116 16.295 C 8.726 16.686 8.092 16.686 7.702 16.295 L 7.702 16.295 C 7.312 15.905 7.312 15.271 7.702 14.881 L 13.165 9.418 Z " fill="rgb(46,46,46)"/></g></svg>