<?xml version="1.0" standalone="no"?><!-- Generator: Gravit.io --><svg xmlns="http://www.w3.org/2000/svg" xmlns:xlink="http://www.w3.org/1999/xlink" style="isolation:isolate" viewBox="0 0 24 24" width="24" height="24"><defs><clipPath id="_clipPath_3V1mvN0vr1DiyKwmf22LUAH4YjgA9JZI"><rect width="24" height="24"/></clipPath></defs><g clip-path="url(#_clipPath_3V1mvN0vr1DiyKwmf22LUAH4YjgA9JZI)"><path d=" M 2.311 8.5 L 13.311 8.5 L 13.311 5 C 13.311 3.344 14.261 2.951 15.432 4.121 L 22.25 10.939 C 22.836 11.525 22.836 12.475 22.25 13.061 L 15.432 19.879 C 14.261 21.049 13.311 20.656 13.311 19 L 13.311 15.5 L 2.311 15.5 C 1.759 15.5 1.311 15.052 1.311 14.5 L 1.311 9.5 C 1.311 8.948 1.759 8.5 2.311 8.5 Z  M 3.811 10.5 L 14.78 10.5 C 15.056 10.5 15.281 10.276 15.284 10 L 15.307 7.328 C 15.309 7.052 15.469 6.987 15.664 7.182 L 20.129 11.646 C 20.324 11.842 20.324 12.158 20.129 12.354 L 15.664 16.818 C 15.469 17.013 15.311 16.948 15.311 16.672 L 15.311 14 C 15.311 13.724 15.087 13.5 14.811 13.5 L 3.811 13.5 C 3.535 13.5 3.311 13.276 3.311 13 L 3.311 11 C 3.311 10.724 3.535 10.5 3.811 10.5 Z " fill-rule="evenodd" fill="rgb(46,46,46)"/></g></svg>