<?xml version="1.0" standalone="no"?><!-- Generator: Gravit.io --><svg xmlns="http://www.w3.org/2000/svg" xmlns:xlink="http://www.w3.org/1999/xlink" style="isolation:isolate" viewBox="0 0 24 24" width="24" height="24"><defs><clipPath id="_clipPath_kFEkz5FV63lFY0Uyb2Zzkwh3GjTEt3yu"><rect width="24" height="24"/></clipPath></defs><g clip-path="url(#_clipPath_kFEkz5FV63lFY0Uyb2Zzkwh3GjTEt3yu)"><path d=" M 1 12 C 1 5.929 5.929 1 12 1 C 18.071 1 23 5.929 23 12 C 23 18.071 18.071 23 12 23 C 5.929 23 1 18.071 1 12 Z  M 3 12 C 3 7.033 7.033 3 12 3 C 16.967 3 21 7.033 21 12 C 21 16.967 16.967 21 12 21 C 7.033 21 3 16.967 3 12 Z " fill-rule="evenodd" fill="rgb(46,46,46)"/><path d=" M 10.835 14.582 L 14.426 14.582 C 14.977 14.582 15.426 15.03 15.426 15.582 L 15.426 15.582 C 15.426 16.134 14.977 16.582 14.426 16.582 L 9.409 16.582 L 9.409 16.588 L 8.409 16.588 C 7.857 16.588 7.409 16.14 7.409 15.588 L 7.409 9.588 C 7.409 9.036 7.857 8.588 8.409 8.588 L 8.409 8.588 C 8.961 8.588 9.409 9.036 9.409 9.588 L 9.409 13.179 L 14.884 7.705 C 15.274 7.314 15.908 7.314 16.298 7.705 L 16.298 7.705 C 16.688 8.095 16.688 8.729 16.298 9.119 L 10.835 14.582 Z " fill="rgb(46,46,46)"/></g></svg>