<?xml version="1.0" standalone="no"?><!-- Generator: Gravit.io --><svg xmlns="http://www.w3.org/2000/svg" xmlns:xlink="http://www.w3.org/1999/xlink" style="isolation:isolate" viewBox="0 0 24 24" width="24" height="24"><defs><clipPath id="_clipPath_ZEFza7GrGakRZMOczNGTqPMT6clpAzzh"><rect width="24" height="24"/></clipPath></defs><g clip-path="url(#_clipPath_ZEFza7GrGakRZMOczNGTqPMT6clpAzzh)"><path d=" M 15.183 13.771 L 15.183 8.181 C 15.183 7.629 15.631 7.181 16.183 7.181 L 16.183 7.181 C 16.735 7.181 17.183 7.629 17.183 8.181 L 17.183 16.181 C 17.183 16.733 16.735 17.181 16.183 17.181 L 15.183 17.181 L 15.183 17.177 L 8.175 17.177 C 7.623 17.177 7.175 16.729 7.175 16.177 L 7.175 16.177 C 7.175 15.626 7.623 15.177 8.175 15.177 L 13.761 15.177 L 7.11 8.526 C 6.719 8.136 6.719 7.502 7.11 7.112 L 7.11 7.112 C 7.5 6.722 8.133 6.722 8.524 7.112 L 15.183 13.771 Z " fill="rgb(46,46,46)"/></g></svg>