<?xml version="1.0" standalone="no"?><!-- Generator: Gravit.io --><svg xmlns="http://www.w3.org/2000/svg" xmlns:xlink="http://www.w3.org/1999/xlink" style="isolation:isolate" viewBox="0 0 24 24" width="24" height="24"><defs><clipPath id="_clipPath_ByLwtYAu7blIH7xizsqbqHsLRLh9EB0V"><rect width="24" height="24"/></clipPath></defs><g clip-path="url(#_clipPath_ByLwtYAu7blIH7xizsqbqHsLRLh9EB0V)"><path d=" M 13.771 8.817 L 8.181 8.817 C 7.629 8.817 7.181 8.369 7.181 7.817 L 7.181 7.817 C 7.181 7.265 7.629 6.817 8.181 6.817 L 16.181 6.817 C 16.733 6.817 17.181 7.265 17.181 7.817 L 17.181 8.817 L 17.177 8.817 L 17.177 15.825 C 17.177 16.377 16.729 16.825 16.177 16.825 L 16.177 16.825 C 15.626 16.825 15.177 16.377 15.177 15.825 L 15.177 10.239 L 8.526 16.89 C 8.136 17.281 7.502 17.281 7.112 16.89 L 7.112 16.89 C 6.722 16.5 6.722 15.867 7.112 15.476 L 13.771 8.817 Z " fill="rgb(46,46,46)"/></g></svg>