<?xml version="1.0" standalone="no"?><!-- Generator: Gravit.io --><svg xmlns="http://www.w3.org/2000/svg" xmlns:xlink="http://www.w3.org/1999/xlink" style="isolation:isolate" viewBox="0 0 24 24" width="24" height="24"><defs><clipPath id="_clipPath_dMFap31H6hspg8xmOx9FYjNR6lImWDEN"><rect width="24" height="24"/></clipPath></defs><g clip-path="url(#_clipPath_dMFap31H6hspg8xmOx9FYjNR6lImWDEN)"><path d=" M 21.689 15.5 L 10.689 15.5 L 10.689 19 C 10.689 20.656 9.739 21.049 8.568 19.879 L 1.75 13.061 C 1.164 12.475 1.164 11.525 1.75 10.939 L 8.568 4.121 C 9.739 2.951 10.689 3.344 10.689 5 L 10.689 8.5 L 21.689 8.5 C 22.241 8.5 22.689 8.948 22.689 9.5 L 22.689 14.5 C 22.689 15.052 22.241 15.5 21.689 15.5 Z  M 20.189 13.5 L 9.22 13.5 C 8.944 13.5 8.719 13.724 8.716 14 L 8.693 16.672 C 8.691 16.948 8.531 17.013 8.336 16.818 L 3.871 12.354 C 3.676 12.158 3.676 11.842 3.871 11.646 L 8.336 7.182 C 8.531 6.987 8.689 7.052 8.689 7.328 L 8.689 10 C 8.689 10.276 8.913 10.5 9.189 10.5 L 20.189 10.5 C 20.465 10.5 20.689 10.724 20.689 11 L 20.689 13 C 20.689 13.276 20.465 13.5 20.189 13.5 Z " fill-rule="evenodd" fill="rgb(46,46,46)"/></g></svg>