<?xml version="1.0" standalone="no"?><!-- Generator: Gravit.io --><svg xmlns="http://www.w3.org/2000/svg" xmlns:xlink="http://www.w3.org/1999/xlink" style="isolation:isolate" viewBox="0 0 24 24" width="24" height="24"><defs><clipPath id="_clipPath_obHvOlyGFG8yos6Yda4CctNLvEEOBvBX"><rect width="24" height="24"/></clipPath></defs><g clip-path="url(#_clipPath_obHvOlyGFG8yos6Yda4CctNLvEEOBvBX)"><path d=" M 10.229 15.183 L 15.819 15.183 C 16.371 15.183 16.819 15.631 16.819 16.183 L 16.819 16.183 C 16.819 16.735 16.371 17.183 15.819 17.183 L 7.819 17.183 C 7.267 17.183 6.819 16.735 6.819 16.183 L 6.819 15.183 L 6.823 15.183 L 6.823 8.175 C 6.823 7.623 7.271 7.175 7.823 7.175 L 7.823 7.175 C 8.374 7.175 8.823 7.623 8.823 8.175 L 8.823 13.761 L 15.474 7.11 C 15.864 6.719 16.498 6.719 16.888 7.11 L 16.888 7.11 C 17.278 7.5 17.278 8.133 16.888 8.524 L 10.229 15.183 Z " fill="rgb(46,46,46)"/></g></svg>