<?xml version="1.0" standalone="no"?><!-- Generator: Gravit.io --><svg xmlns="http://www.w3.org/2000/svg" xmlns:xlink="http://www.w3.org/1999/xlink" style="isolation:isolate" viewBox="0 0 24 24" width="24" height="24"><defs><clipPath id="_clipPath_zQERfAjznBnoudRmpkTQdvG6pICZkjtY"><rect width="24" height="24"/></clipPath></defs><g clip-path="url(#_clipPath_zQERfAjznBnoudRmpkTQdvG6pICZkjtY)"><path d=" M 1 12 C 1 5.929 5.929 1 12 1 C 18.071 1 23 5.929 23 12 C 23 18.071 18.071 23 12 23 C 5.929 23 1 18.071 1 12 Z  M 3 12 C 3 7.033 7.033 3 12 3 C 16.967 3 21 7.033 21 12 C 21 16.967 16.967 21 12 21 C 7.033 21 3 16.967 3 12 Z " fill-rule="evenodd" fill="rgb(46,46,46)"/><path d=" M 14.582 13.165 L 14.582 9.574 C 14.582 9.023 15.03 8.574 15.582 8.574 L 15.582 8.574 C 16.134 8.574 16.582 9.023 16.582 9.574 L 16.582 14.591 L 16.588 14.591 L 16.588 15.591 C 16.588 16.143 16.14 16.591 15.588 16.591 L 9.588 16.591 C 9.036 16.591 8.588 16.143 8.588 15.591 L 8.588 15.591 C 8.588 15.039 9.036 14.591 9.588 14.591 L 13.179 14.591 L 7.705 9.116 C 7.314 8.726 7.314 8.092 7.705 7.702 L 7.705 7.702 C 8.095 7.312 8.729 7.312 9.119 7.702 L 14.582 13.165 Z " fill="rgb(46,46,46)"/></g></svg>