<?xml version="1.0" standalone="no"?><!-- Generator: Gravit.io --><svg xmlns="http://www.w3.org/2000/svg" xmlns:xlink="http://www.w3.org/1999/xlink" style="isolation:isolate" viewBox="0 0 24 24" width="24" height="24"><defs><clipPath id="_clipPath_ZozMXLIoFx66ihWGRYSS69UxD2XkiF7n"><rect width="24" height="24"/></clipPath></defs><g clip-path="url(#_clipPath_ZozMXLIoFx66ihWGRYSS69UxD2XkiF7n)"><path d=" M 15.5 2.311 L 15.5 13.311 L 19 13.311 C 20.656 13.311 21.049 14.261 19.879 15.432 L 13.061 22.25 C 12.475 22.836 11.525 22.836 10.939 22.25 L 4.121 15.432 C 2.951 14.261 3.344 13.311 5 13.311 L 8.5 13.311 L 8.5 2.311 C 8.5 1.759 8.948 1.311 9.5 1.311 L 14.5 1.311 C 15.052 1.311 15.5 1.759 15.5 2.311 Z  M 13.5 3.811 L 13.5 14.78 C 13.5 15.056 13.724 15.281 14 15.284 L 16.672 15.307 C 16.948 15.309 17.013 15.469 16.818 15.664 L 12.354 20.129 C 12.158 20.324 11.842 20.324 11.646 20.129 L 7.182 15.664 C 6.987 15.469 7.052 15.311 7.328 15.311 L 10 15.311 C 10.276 15.311 10.5 15.087 10.5 14.811 L 10.5 3.811 C 10.5 3.535 10.724 3.311 11 3.311 L 13 3.311 C 13.276 3.311 13.5 3.535 13.5 3.811 Z " fill-rule="evenodd" fill="rgb(46,46,46)"/></g></svg>