<?xml version="1.0" standalone="no"?><!-- Generator: Gravit.io --><svg xmlns="http://www.w3.org/2000/svg" xmlns:xlink="http://www.w3.org/1999/xlink" style="isolation:isolate" viewBox="0 0 24 24" width="24" height="24"><defs><clipPath id="_clipPath_6zKdd78J9eYmqIk0Ewsrz5HRZaS4uex8"><rect width="24" height="24"/></clipPath></defs><g clip-path="url(#_clipPath_6zKdd78J9eYmqIk0Ewsrz5HRZaS4uex8)"><path d=" M 8.817 10.229 L 8.817 15.819 C 8.817 16.371 8.369 16.819 7.817 16.819 L 7.817 16.819 C 7.265 16.819 6.817 16.371 6.817 15.819 L 6.817 7.819 C 6.817 7.267 7.265 6.819 7.817 6.819 L 8.817 6.819 L 8.817 6.823 L 15.825 6.823 C 16.377 6.823 16.825 7.271 16.825 7.823 L 16.825 7.823 C 16.825 8.374 16.377 8.823 15.825 8.823 L 10.239 8.823 L 16.89 15.474 C 17.281 15.864 17.281 16.498 16.89 16.888 L 16.89 16.888 C 16.5 17.278 15.867 17.278 15.476 16.888 L 8.817 10.229 Z " fill="rgb(46,46,46)"/></g></svg>