<?xml version="1.0" standalone="no"?><!-- Generator: Gravit.io --><svg xmlns="http://www.w3.org/2000/svg" xmlns:xlink="http://www.w3.org/1999/xlink" style="isolation:isolate" viewBox="0 0 24 24" width="24" height="24"><defs><clipPath id="_clipPath_BdWJShZCmBrDQiRfwDjM9shaDfNyUa4d"><rect width="24" height="24"/></clipPath></defs><g clip-path="url(#_clipPath_BdWJShZCmBrDQiRfwDjM9shaDfNyUa4d)"><path d=" M 1 12 C 1 5.929 5.929 1 12 1 C 18.071 1 23 5.929 23 12 C 23 18.071 18.071 23 12 23 C 5.929 23 1 18.071 1 12 Z  M 3 12 C 3 7.033 7.033 3 12 3 C 16.967 3 21 7.033 21 12 C 21 16.967 16.967 21 12 21 C 7.033 21 3 16.967 3 12 Z " fill-rule="evenodd" fill="rgb(46,46,46)"/><path d=" M 9.418 10.835 L 9.418 14.426 C 9.418 14.977 8.97 15.426 8.418 15.426 L 8.418 15.426 C 7.866 15.426 7.418 14.977 7.418 14.426 L 7.418 9.409 L 7.412 9.409 L 7.412 8.409 C 7.412 7.857 7.86 7.409 8.412 7.409 L 14.412 7.409 C 14.964 7.409 15.412 7.857 15.412 8.409 L 15.412 8.409 C 15.412 8.961 14.964 9.409 14.412 9.409 L 10.821 9.409 L 16.295 14.884 C 16.686 15.274 16.686 15.908 16.295 16.298 L 16.295 16.298 C 15.905 16.688 15.271 16.688 14.881 16.298 L 9.418 10.835 Z " fill="rgb(46,46,46)"/></g></svg>