<?xml version="1.0" standalone="no"?><!-- Generator: Gravit.io --><svg xmlns="http://www.w3.org/2000/svg" xmlns:xlink="http://www.w3.org/1999/xlink" style="isolation:isolate" viewBox="0 0 24 24" width="24" height="24"><defs><clipPath id="_clipPath_qAkJzJqhFLhH2LqwR4twz7E5KuGfbdnc"><rect width="24" height="24"/></clipPath></defs><g clip-path="url(#_clipPath_qAkJzJqhFLhH2LqwR4twz7E5KuGfbdnc)"><path d=" M 10.5 13 L 10.5 13 C 11.052 13 11.5 13.448 11.5 14 L 11.5 19 C 11.5 19.552 11.052 20 10.5 20 L 10.5 20 C 9.948 20 9.5 19.552 9.5 19 L 9.5 14 C 9.5 13.448 9.948 13 10.5 13 Z " fill="rgb(46,46,46)"/><path d=" M 7.5 16 L 7.5 16 C 8.052 16 8.5 16.448 8.5 17 L 8.5 19 C 8.5 19.552 8.052 20 7.5 20 L 7.5 20 C 6.948 20 6.5 19.552 6.5 19 L 6.5 17 C 6.5 16.448 6.948 16 7.5 16 Z " fill="rgb(46,46,46)"/><path d=" M 16.5 9 L 16.5 9 C 17.052 9 17.5 9.448 17.5 10 L 17.5 19 C 17.5 19.552 17.052 20 16.5 20 L 16.5 20 C 15.948 20 15.5 19.552 15.5 19 L 15.5 10 C 15.5 9.448 15.948 9 16.5 9 Z " fill="rgb(46,46,46)"/><path d=" M 13.5 4 L 13.5 4 C 14.052 4 14.5 4.448 14.5 5 L 14.5 12 L 14.5 19 C 14.5 19.552 14.052 20 13.5 20 L 13.5 20 C 12.948 20 12.5 19.552 12.5 19 L 12.5 5 C 12.5 4.448 12.948 4 13.5 4 Z " fill="rgb(46,46,46)"/></g></svg>