<?xml version="1.0" standalone="no"?><!-- Generator: Gravit.io --><svg xmlns="http://www.w3.org/2000/svg" xmlns:xlink="http://www.w3.org/1999/xlink" style="isolation:isolate" viewBox="0 0 24 24" width="24" height="24"><defs><clipPath id="_clipPath_t85J6qHVgiULuvnemwTCzqEaZfc5MtI8"><rect width="24" height="24"/></clipPath></defs><g clip-path="url(#_clipPath_t85J6qHVgiULuvnemwTCzqEaZfc5MtI8)"><path d=" M 11.875 13 L 11.875 13 C 12.427 13 12.875 13.448 12.875 14 L 12.875 19 C 12.875 19.552 12.427 20 11.875 20 L 11.875 20 C 11.323 20 10.875 19.552 10.875 19 L 10.875 14 C 10.875 13.448 11.323 13 11.875 13 Z " fill="rgb(46,46,46)"/><path d=" M 8.875 16 L 8.875 16 C 9.427 16 9.875 16.448 9.875 17 L 9.875 19 C 9.875 19.552 9.427 20 8.875 20 L 8.875 20 C 8.323 20 7.875 19.552 7.875 19 L 7.875 17 C 7.875 16.448 8.323 16 8.875 16 Z " fill="rgb(46,46,46)"/><path d=" M 14.78 11 L 14.97 11 C 15.47 11 15.875 11.405 15.875 11.905 L 15.875 19.095 C 15.875 19.595 15.47 20 14.97 20 L 14.78 20 C 14.28 20 13.875 19.595 13.875 19.095 L 13.875 11.905 C 13.875 11.405 14.28 11 14.78 11 Z " fill="rgb(46,46,46)"/><path d=" M 17.704 9 L 18.046 9 C 18.503 9 18.875 9.372 18.875 9.829 L 18.875 19.171 C 18.875 19.628 18.503 20 18.046 20 L 17.704 20 C 17.247 20 16.875 19.628 16.875 19.171 L 16.875 9.829 C 16.875 9.372 17.247 9 17.704 9 Z " fill="rgb(46,46,46)"/><path d=" M 13.256 6.561 L 13.256 9 C 13.256 9.552 13.592 10 14.006 10 L 14.006 10 C 14.42 10 14.756 9.552 14.756 9 L 14.756 5.5 L 14.756 5 C 14.756 4.448 14.308 4 13.756 4 L 13.256 4 L 9.756 4 C 9.204 4 8.756 4.336 8.756 4.75 L 8.756 4.75 C 8.756 5.164 9.204 5.5 9.756 5.5 L 12.195 5.5 L 5.478 12.217 C 5.088 12.607 5.009 13.162 5.302 13.454 L 5.302 13.454 C 5.594 13.747 6.149 13.668 6.539 13.278 L 13.256 6.561 Z " fill="rgb(46,46,46)"/></g></svg>