<?xml version="1.0" standalone="no"?><!-- Generator: Gravit.io --><svg xmlns="http://www.w3.org/2000/svg" xmlns:xlink="http://www.w3.org/1999/xlink" style="isolation:isolate" viewBox="0 0 24 24" width="24" height="24"><defs><clipPath id="_clipPath_2htJ6WcOwniGKryqjGWab13DJp90Cf7W"><rect width="24" height="24"/></clipPath></defs><g clip-path="url(#_clipPath_2htJ6WcOwniGKryqjGWab13DJp90Cf7W)"><path d=" M 13.5 15 L 13.5 15 C 14.052 15 14.5 15.448 14.5 16 L 14.5 21 C 14.5 21.552 14.052 22 13.5 22 L 13.5 22 C 12.948 22 12.5 21.552 12.5 21 L 12.5 16 C 12.5 15.448 12.948 15 13.5 15 Z " fill="rgb(46,46,46)"/><path d=" M 16.5 18 L 16.5 18 C 17.052 18 17.5 18.448 17.5 19 L 17.5 21 C 17.5 21.552 17.052 22 16.5 22 L 16.5 22 C 15.948 22 15.5 21.552 15.5 21 L 15.5 19 C 15.5 18.448 15.948 18 16.5 18 Z " fill="rgb(46,46,46)"/><path d=" M 10.405 13 L 10.595 13 C 11.095 13 11.5 13.405 11.5 13.905 L 11.5 21.095 C 11.5 21.595 11.095 22 10.595 22 L 10.405 22 C 9.905 22 9.5 21.595 9.5 21.095 L 9.5 13.905 C 9.5 13.405 9.905 13 10.405 13 Z " fill="rgb(46,46,46)"/><path d=" M 7.329 11 L 7.671 11 C 8.128 11 8.5 11.372 8.5 11.829 L 8.5 21.171 C 8.5 21.628 8.128 22 7.671 22 L 7.329 22 C 6.872 22 6.5 21.628 6.5 21.171 L 6.5 11.829 C 6.5 11.372 6.872 11 7.329 11 Z " fill="rgb(46,46,46)"/><path d=" M 17.3 12.398 L 14.944 13.029 C 14.411 13.172 14.065 13.613 14.172 14.012 L 14.172 14.012 C 14.279 14.412 14.799 14.621 15.332 14.478 L 18.713 13.573 L 19.196 13.443 C 19.729 13.301 20.046 12.752 19.903 12.219 L 19.774 11.736 L 18.868 8.355 C 18.725 7.822 18.285 7.476 17.885 7.583 L 17.885 7.583 C 17.485 7.69 17.277 8.21 17.419 8.743 L 18.05 11.099 L 9.825 6.349 C 9.347 6.073 8.79 6.14 8.583 6.498 L 8.583 6.498 C 8.376 6.857 8.596 7.372 9.074 7.648 L 17.3 12.398 Z " fill="rgb(46,46,46)"/></g></svg>