<?xml version="1.0" standalone="no"?><!-- Generator: Gravit.io --><svg xmlns="http://www.w3.org/2000/svg" xmlns:xlink="http://www.w3.org/1999/xlink" style="isolation:isolate" viewBox="0 0 24 24" width="24" height="24"><defs><clipPath id="_clipPath_QRQbjUtAGhqEHw3hDQ4I1KhtpP9sLtQF"><rect width="24" height="24"/></clipPath></defs><g clip-path="url(#_clipPath_QRQbjUtAGhqEHw3hDQ4I1KhtpP9sLtQF)"><path d=" M 20.5 9 L 21 9 C 21.552 9 22 9.448 22 10 L 22 14 C 22 14.552 21.552 15 21 15 L 20.5 15 L 20.5 9 Z  M 3 6 L 19.5 6 C 20.052 6 20.5 6.448 20.5 7 L 20.5 17 C 20.5 17.552 20.052 18 19.5 18 L 3 18 C 2.448 18 2 17.552 2 17 L 2 7 C 2 6.448 2.448 6 3 6 Z  M 4.5 8 L 18 8 C 18.276 8 18.5 8.224 18.5 8.5 L 18.5 15.5 C 18.5 15.776 18.276 16 18 16 L 4.5 16 C 4.224 16 4 15.776 4 15.5 L 4 8.5 C 4 8.224 4.224 8 4.5 8 Z " fill-rule="evenodd" fill="rgb(46,46,46)"/><path d=" M 5 8.5 L 17.5 8.5 C 17.776 8.5 18 8.724 18 9 L 18 15 C 18 15.276 17.776 15.5 17.5 15.5 L 5 15.5 C 4.724 15.5 4.5 15.276 4.5 15 L 4.5 9 C 4.5 8.724 4.724 8.5 5 8.5 Z " fill="rgb(46,46,46)"/></g></svg>