<?xml version="1.0" standalone="no"?><!-- Generator: Gravit.io --><svg xmlns="http://www.w3.org/2000/svg" xmlns:xlink="http://www.w3.org/1999/xlink" style="isolation:isolate" viewBox="0 0 24 24" width="24" height="24"><defs><clipPath id="_clipPath_ZcznNEhbXwBgLeivinHjAHVohLqmF1c6"><rect width="24" height="24"/></clipPath></defs><g clip-path="url(#_clipPath_ZcznNEhbXwBgLeivinHjAHVohLqmF1c6)"><path d=" M 6 12 C 6 8.689 8.689 6 12 6 C 15.311 6 18 8.689 18 12 C 18 15.311 15.311 18 12 18 C 8.689 18 6 15.311 6 12 Z  M 8 12 C 8 9.792 9.792 8 12 8 C 14.208 8 16 9.792 16 12 C 16 14.208 14.208 16 12 16 C 9.792 16 8 14.208 8 12 Z " fill-rule="evenodd" fill="rgb(46,46,46)"/><path d=" M 18.364 4.222 L 19.778 5.636 L 16.596 8.818 L 15.182 7.404 L 18.364 4.222 Z " fill="rgb(46,46,46)"/><path d=" M 7.404 15.182 L 8.818 16.596 L 5.636 19.778 L 4.222 18.364 L 7.404 15.182 Z " fill="rgb(46,46,46)"/><path d=" M 4.222 5.636 L 5.636 4.222 L 8.818 7.404 L 7.404 8.818 L 4.222 5.636 Z " fill="rgb(46,46,46)"/><path d=" M 15.182 16.596 L 16.596 15.182 L 19.778 18.364 L 18.364 19.778 L 15.182 16.596 Z " fill="rgb(46,46,46)"/><path d=" M 13 22 L 11 22 L 11 17.5 L 13 17.5 L 13 22 Z " fill="rgb(46,46,46)"/><path d=" M 13 6.5 L 11 6.5 L 11 2 L 13 2 L 13 6.5 Z " fill="rgb(46,46,46)"/><path d=" M 2 13 L 2 11 L 6.5 11 L 6.5 13 L 2 13 Z " fill="rgb(46,46,46)"/><path d=" M 17.5 13 L 17.5 11 L 22 11 L 22 13 L 17.5 13 Z " fill="rgb(46,46,46)"/></g></svg>