<?xml version="1.0" standalone="no"?><!-- Generator: Gravit.io --><svg xmlns="http://www.w3.org/2000/svg" xmlns:xlink="http://www.w3.org/1999/xlink" style="isolation:isolate" viewBox="0 0 24 24" width="24" height="24"><defs><clipPath id="_clipPath_Q8NmND9EHaL5zT9sJ4rJLlPLGIq0GYbV"><rect width="24" height="24"/></clipPath></defs><g clip-path="url(#_clipPath_Q8NmND9EHaL5zT9sJ4rJLlPLGIq0GYbV)"><path d=" M 8.207 5.497 L 7.738 2.36 C 7.698 2.087 7.44 1.865 7.165 1.865 L 1.973 1.865 C 1.421 1.865 0.973 2.314 0.973 2.865 L 0.973 3.287 C 0.973 3.839 1.421 4.287 1.973 4.287 L 5.245 4.287 C 5.521 4.287 5.781 4.508 5.826 4.78 L 7.568 15.505 C 7.656 16.05 8.176 16.489 8.728 16.484 L 19.348 16.4 C 19.9 16.396 20.348 15.944 20.348 15.393 L 20.348 14.971 C 20.348 14.419 19.9 13.971 19.348 13.971 L 9.584 13.971 L 9.387 12.761 L 20.048 12.761 C 20.6 12.761 21.179 12.332 21.341 11.805 L 22.985 6.453 C 23.147 5.926 22.83 5.497 22.278 5.497 L 8.207 5.497 Z  M 20.267 7.918 L 8.6 7.918 L 8.994 10.34 L 19.486 10.34 L 20.267 7.918 Z " fill-rule="evenodd" fill="rgb(46,46,46)"/><path d=" M 7.973 20.135 C 7.973 18.479 9.317 17.135 10.973 17.135 C 12.629 17.135 13.973 18.479 13.973 20.135 C 13.973 21.79 12.629 23.135 10.973 23.135 C 9.317 23.135 7.973 21.79 7.973 20.135 Z  M 9.973 20.135 C 9.973 19.583 10.421 19.135 10.973 19.135 C 11.525 19.135 11.973 19.583 11.973 20.135 C 11.973 20.686 11.525 21.135 10.973 21.135 C 10.421 21.135 9.973 20.686 9.973 20.135 Z " fill-rule="evenodd" fill="rgb(46,46,46)"/><path d=" M 14.473 20.135 C 14.473 18.479 15.817 17.135 17.473 17.135 C 19.129 17.135 20.473 18.479 20.473 20.135 C 20.473 21.79 19.129 23.135 17.473 23.135 C 15.817 23.135 14.473 21.79 14.473 20.135 Z  M 16.473 20.135 C 16.473 19.583 16.921 19.135 17.473 19.135 C 18.025 19.135 18.473 19.583 18.473 20.135 C 18.473 20.686 18.025 21.135 17.473 21.135 C 16.921 21.135 16.473 20.686 16.473 20.135 Z " fill-rule="evenodd" fill="rgb(46,46,46)"/></g></svg>