<?xml version="1.0" standalone="no"?><!-- Generator: Gravit.io --><svg xmlns="http://www.w3.org/2000/svg" xmlns:xlink="http://www.w3.org/1999/xlink" style="isolation:isolate" viewBox="0 0 24 24" width="24" height="24"><defs><clipPath id="_clipPath_E0uaUDslclNnvlJD0mepRGhy7ESsCVnC"><rect width="24" height="24"/></clipPath></defs><g clip-path="url(#_clipPath_E0uaUDslclNnvlJD0mepRGhy7ESsCVnC)"><path d=" M 1 12 C 1 5.929 5.929 1 12 1 C 18.071 1 23 5.929 23 12 C 23 18.071 18.071 23 12 23 C 5.929 23 1 18.071 1 12 Z  M 3 12 C 3 7.033 7.033 3 12 3 C 16.967 3 21 7.033 21 12 C 21 16.967 16.967 21 12 21 C 7.033 21 3 16.967 3 12 Z " fill-rule="evenodd" fill="rgb(46,46,46)"/><path d=" M 13 12.111 L 13 7 C 13 6.448 12.552 6 12 6 L 12 6 C 11.448 6 11 6.448 11 7 L 11 12.939 L 11 13 L 11.061 13 L 13.828 15.768 C 14.219 16.158 14.852 16.158 15.243 15.768 L 15.243 15.768 C 15.633 15.378 15.633 14.744 15.243 14.354 L 13 12.111 Z " fill="rgb(46,46,46)"/></g></svg>