<?xml version="1.0" standalone="no"?><!-- Generator: Gravit.io --><svg xmlns="http://www.w3.org/2000/svg" xmlns:xlink="http://www.w3.org/1999/xlink" style="isolation:isolate" viewBox="0 0 24 24" width="24" height="24"><defs><clipPath id="_clipPath_vz6NUPeffPQIvhQ2KT6CeOtfbaDddBGt"><rect width="24" height="24"/></clipPath></defs><g clip-path="url(#_clipPath_vz6NUPeffPQIvhQ2KT6CeOtfbaDddBGt)"><path d=" M 10.586 12 L 6.635 15.951 C 6.279 16.307 6.279 16.885 6.635 17.242 L 6.758 17.365 C 7.115 17.721 7.693 17.721 8.049 17.365 L 12 13.414 L 15.951 17.365 C 16.307 17.721 16.885 17.721 17.242 17.365 L 17.365 17.242 C 17.721 16.885 17.721 16.307 17.365 15.951 L 13.414 12 L 17.365 8.049 C 17.721 7.693 17.721 7.115 17.365 6.758 L 17.242 6.635 C 16.885 6.279 16.307 6.279 15.951 6.635 L 12 10.586 L 8.049 6.635 C 7.693 6.279 7.115 6.279 6.758 6.635 L 6.635 6.758 C 6.279 7.115 6.279 7.693 6.635 8.049 L 10.586 12 Z " fill="rgb(46,46,46)"/></g></svg>