<?xml version="1.0" standalone="no"?><!-- Generator: Gravit.io --><svg xmlns="http://www.w3.org/2000/svg" xmlns:xlink="http://www.w3.org/1999/xlink" style="isolation:isolate" viewBox="0 0 24 24" width="24" height="24"><defs><clipPath id="_clipPath_CPgDrC6ZyqhMUCvozwV3pXNjHNQhuumz"><rect width="24" height="24"/></clipPath></defs><g clip-path="url(#_clipPath_CPgDrC6ZyqhMUCvozwV3pXNjHNQhuumz)"><path d=" M 1 12 C 1 5.929 5.929 1 12 1 C 18.071 1 23 5.929 23 12 C 23 18.071 18.071 23 12 23 C 5.929 23 1 18.071 1 12 Z  M 3 12 C 3 7.033 7.033 3 12 3 C 16.967 3 21 7.033 21 12 C 21 16.967 16.967 21 12 21 C 7.033 21 3 16.967 3 12 Z " fill-rule="evenodd" fill="rgb(46,46,46)"/><path d=" M 10.586 12 L 7.628 14.958 C 7.309 15.277 7.309 15.794 7.628 16.113 L 7.887 16.372 C 8.206 16.691 8.723 16.691 9.042 16.372 L 12 13.414 L 14.958 16.372 C 15.277 16.691 15.794 16.691 16.113 16.372 L 16.372 16.113 C 16.691 15.794 16.691 15.277 16.372 14.958 L 13.414 12 L 16.372 9.042 C 16.691 8.723 16.691 8.206 16.372 7.887 L 16.113 7.628 C 15.794 7.309 15.277 7.309 14.958 7.628 L 12 10.586 L 9.042 7.628 C 8.723 7.309 8.206 7.309 7.887 7.628 L 7.628 7.887 C 7.309 8.206 7.309 8.723 7.628 9.042 L 10.586 12 Z " fill="rgb(46,46,46)"/></g></svg>