<?xml version="1.0" standalone="no"?><!-- Generator: Gravit.io --><svg xmlns="http://www.w3.org/2000/svg" xmlns:xlink="http://www.w3.org/1999/xlink" style="isolation:isolate" viewBox="0 0 24 24" width="24" height="24"><defs><clipPath id="_clipPath_zX6STO53zLCoMJQsp8Gfmrz9o3ok4Db3"><rect width="24" height="24"/></clipPath></defs><g clip-path="url(#_clipPath_zX6STO53zLCoMJQsp8Gfmrz9o3ok4Db3)"><path d=" M 1 12 C 1 5.929 5.929 1 12 1 C 18.071 1 23 5.929 23 12 C 23 18.071 18.071 23 12 23 C 5.929 23 1 18.071 1 12 Z  M 3 12 C 3 7.033 7.033 3 12 3 C 16.967 3 21 7.033 21 12 C 21 16.967 16.967 21 12 21 C 7.033 21 3 16.967 3 12 Z " fill-rule="evenodd" fill="rgb(46,46,46)"/><path d=" M 8.667 8.667 L 17 7 L 15.333 15.333 L 7 17 L 8.667 8.667 Z  M 10.333 10.333 L 14.5 9.5 L 13.667 13.667 L 9.5 14.5 L 10.333 10.333 Z " fill-rule="evenodd" fill="rgb(46,46,46)"/></g></svg>