<?xml version="1.0" standalone="no"?><!-- Generator: Gravit.io --><svg xmlns="http://www.w3.org/2000/svg" xmlns:xlink="http://www.w3.org/1999/xlink" style="isolation:isolate" viewBox="0 0 24 24" width="24" height="24"><defs><clipPath id="_clipPath_XHxe4L72tn9OeB8eeMUnTSgMTLAfrjHK"><rect width="24" height="24"/></clipPath></defs><g clip-path="url(#_clipPath_XHxe4L72tn9OeB8eeMUnTSgMTLAfrjHK)"><path d=" M 9 7.5 L 21 7.5 C 21.552 7.5 22 7.948 22 8.5 L 22 20.5 C 22 21.052 21.552 21.5 21 21.5 L 9 21.5 C 8.448 21.5 8 21.052 8 20.5 L 8 8.5 C 8 7.948 8.448 7.5 9 7.5 Z  M 10.5 9.5 L 19.5 9.5 C 19.776 9.5 20 9.724 20 10 L 20 19 C 20 19.276 19.776 19.5 19.5 19.5 L 10.5 19.5 C 10.224 19.5 10 19.276 10 19 L 10 10 C 10 9.724 10.224 9.5 10.5 9.5 Z " fill-rule="evenodd" fill="rgb(46,46,46)"/><path d=" M 10 16.5 L 3 16.5 C 2.448 16.5 2 16.052 2 15.5 L 2 3.5 C 2 2.948 2.448 2.5 3 2.5 L 15 2.5 C 15.552 2.5 16 2.948 16 3.5 L 16 9.5 L 13.75 9.5 L 13.75 4.75 C 13.75 4.474 13.526 4.25 13.25 4.25 L 4.5 4.25 C 4.224 4.25 4 4.474 4 4.75 L 4 13.75 C 4 14.026 4.224 14.25 4.5 14.25 L 10 14.25 L 10 16.5 L 10 16.5 Z " fill="rgb(46,46,46)"/></g></svg>