<?xml version="1.0" standalone="no"?><!-- Generator: Gravit.io --><svg xmlns="http://www.w3.org/2000/svg" xmlns:xlink="http://www.w3.org/1999/xlink" style="isolation:isolate" viewBox="0 0 24 24" width="24" height="24"><defs><clipPath id="_clipPath_rniHgjM3VKasb6dqCjqUxhkXuUw3cLGS"><rect width="24" height="24"/></clipPath></defs><g clip-path="url(#_clipPath_rniHgjM3VKasb6dqCjqUxhkXuUw3cLGS)"><path d=" M 23 5.5 L 23 18.5 C 23 19.328 22.328 20 21.5 20 L 2.5 20 C 1.672 20 1 19.328 1 18.5 L 1 5.5 C 1 4.672 1.672 4 2.5 4 L 21.5 4 C 22.328 4 23 4.672 23 5.5 Z  M 21 11.5 L 21 17.5 C 21 17.776 20.776 18 20.5 18 L 3.5 18 C 3.224 18 3 17.776 3 17.5 L 3 11.5 C 3 11.224 3.224 11 3.5 11 L 20.5 11 C 20.776 11 21 11.224 21 11.5 Z  M 21 8.5 L 21 6.5 C 21 6.224 20.776 6 20.5 6 L 3.5 6 C 3.224 6 3 6.224 3 6.5 L 3 8.5 C 3 8.776 3.224 9 3.5 9 L 20.5 9 C 20.776 9 21 8.776 21 8.5 Z " fill-rule="evenodd" fill="rgb(46,46,46)"/></g></svg>