<?xml version="1.0" standalone="no"?><!-- Generator: Gravit.io --><svg xmlns="http://www.w3.org/2000/svg" xmlns:xlink="http://www.w3.org/1999/xlink" style="isolation:isolate" viewBox="0 0 24 24" width="24" height="24"><defs><clipPath id="_clipPath_1BRUJb9v1nnBC0spMVBcQYHgMjiZGK7n"><rect width="24" height="24"/></clipPath></defs><g clip-path="url(#_clipPath_1BRUJb9v1nnBC0spMVBcQYHgMjiZGK7n)"><path d=" M 10.586 13.036 L 11.293 13.743 C 11.683 14.133 12.317 14.133 12.707 13.743 L 13.414 13.036 L 19.778 6.672 C 20.168 6.281 20.168 5.648 19.778 5.257 L 19.778 5.257 C 19.388 4.867 18.754 4.867 18.364 5.257 L 12 11.621 L 5.636 5.257 C 5.246 4.867 4.612 4.867 4.222 5.257 L 4.222 5.257 C 3.832 5.648 3.832 6.281 4.222 6.672 L 10.586 13.036 Z " fill="rgb(46,46,46)"/><path d=" M 10.586 18.036 L 11.293 18.743 C 11.683 19.133 12.317 19.133 12.707 18.743 L 13.414 18.036 L 19.778 11.672 C 20.168 11.281 20.168 10.648 19.778 10.257 L 19.778 10.257 C 19.388 9.867 18.754 9.867 18.364 10.257 L 12 16.621 L 5.636 10.257 C 5.246 9.867 4.612 9.867 4.222 10.257 L 4.222 10.257 C 3.832 10.648 3.832 11.281 4.222 11.672 L 10.586 18.036 Z " fill="rgb(46,46,46)"/></g></svg>