<?xml version="1.0" standalone="no"?><!-- Generator: Gravit.io --><svg xmlns="http://www.w3.org/2000/svg" xmlns:xlink="http://www.w3.org/1999/xlink" style="isolation:isolate" viewBox="0 0 24 24" width="24" height="24"><defs><clipPath id="_clipPath_UYEEB4zx94FVQqmupX1WZfV36vyIQeYu"><rect width="24" height="24"/></clipPath></defs><g clip-path="url(#_clipPath_UYEEB4zx94FVQqmupX1WZfV36vyIQeYu)"><path d=" M 19.609 12.368 C 21.026 13.055 22 14.509 22 16.188 L 22 16.741 C 22 19.091 20.091 21 17.741 21 L 6.259 21 C 3.909 21 2 19.091 2 16.741 L 2 16.188 C 2 14.376 3.134 12.827 4.736 12.222 C 4.319 11.541 4.083 10.736 4.083 9.874 C 4.083 7.371 6.075 5.339 8.528 5.339 C 9.269 5.339 9.969 5.524 10.584 5.852 C 11.541 4.148 13.342 3 15.403 3 C 18.469 3 20.958 5.54 20.958 8.669 C 20.958 10.083 20.45 11.376 19.609 12.368 Z " fill="rgb(255,255,255)" vector-effect="non-scaling-stroke" stroke-width="2" stroke="rgb(0,0,0)" stroke-linejoin="miter" stroke-linecap="square" stroke-miterlimit="3"/><path d=" M 13 14.723 L 14.125 13.598 C 14.515 13.207 15.149 13.207 15.539 13.598 L 15.539 13.598 C 15.93 13.988 15.93 14.621 15.539 15.012 L 12.711 17.84 C 12.321 18.23 11.687 18.23 11.297 17.84 L 10.59 17.133 L 10.59 17.133 L 8.461 15.004 C 8.07 14.614 8.07 13.98 8.461 13.59 L 8.461 13.59 C 8.851 13.199 9.485 13.199 9.875 13.59 L 11 14.715 L 11 9 C 11 8.448 11.448 8 12 8 L 12 8 C 12.552 8 13 8.448 13 9 L 13 14.723 Z " fill="rgb(0,0,0)"/></g></svg>