<?xml version="1.0" standalone="no"?><!-- Generator: Gravit.io --><svg xmlns="http://www.w3.org/2000/svg" xmlns:xlink="http://www.w3.org/1999/xlink" style="isolation:isolate" viewBox="0 0 24 24" width="24" height="24"><defs><clipPath id="_clipPath_YuH0W1hKt8H4P9Vbu15j7HPsYQTeQF3U"><rect width="24" height="24"/></clipPath></defs><g clip-path="url(#_clipPath_YuH0W1hKt8H4P9Vbu15j7HPsYQTeQF3U)"><path d=" M 12.998 15.504 L 16.951 11.55 C 17.342 11.16 17.975 11.16 18.366 11.55 L 18.366 11.55 C 18.756 11.941 18.756 12.574 18.366 12.965 L 12.709 18.621 C 12.318 19.012 11.685 19.012 11.295 18.621 L 10.587 17.914 L 10.59 17.912 L 5.634 12.957 C 5.244 12.566 5.244 11.933 5.634 11.543 L 5.634 11.543 C 6.025 11.152 6.658 11.152 7.049 11.543 L 10.998 15.492 L 10.998 6.086 C 10.998 5.534 11.446 5.086 11.998 5.086 L 11.998 5.086 C 12.55 5.086 12.998 5.534 12.998 6.086 L 12.998 15.504 Z " fill="rgb(46,46,46)"/></g></svg>