<?xml version="1.0" standalone="no"?><!-- Generator: Gravit.io --><svg xmlns="http://www.w3.org/2000/svg" xmlns:xlink="http://www.w3.org/1999/xlink" style="isolation:isolate" viewBox="0 0 24 24" width="24" height="24"><defs><clipPath id="_clipPath_ytVsN38W1JgmIsfFGmhsfCNk1IuKB00V"><rect width="24" height="24"/></clipPath></defs><g clip-path="url(#_clipPath_ytVsN38W1JgmIsfFGmhsfCNk1IuKB00V)"><path d=" M 1.953 21 L 22.047 21 C 22.573 21 23 21.427 23 21.953 L 23 22.047 C 23 22.573 22.573 23 22.047 23 L 1.953 23 C 1.427 23 1 22.573 1 22.047 L 1 21.953 C 1 21.427 1.427 21 1.953 21 Z " fill="rgb(46,46,46)"/><path d=" M 10.9 13.728 L 10.9 2 C 10.9 1.448 11.348 1 11.9 1 L 12.1 1 C 12.652 1 13.1 1.448 13.1 2 L 13.1 13.732 L 18.211 8.621 C 18.601 8.23 19.235 8.23 19.625 8.621 L 19.766 8.762 C 20.157 9.152 20.157 9.786 19.766 10.176 L 13.558 16.385 L 13.567 16.395 L 12.719 17.243 C 12.329 17.634 11.695 17.634 11.305 17.243 L 4.234 10.172 C 3.843 9.782 3.843 9.148 4.234 8.758 L 4.375 8.617 C 4.765 8.227 5.399 8.227 5.789 8.617 L 10.9 13.728 Z " fill="rgb(46,46,46)"/></g></svg>