<?xml version="1.0" standalone="no"?><!-- Generator: Gravit.io --><svg xmlns="http://www.w3.org/2000/svg" xmlns:xlink="http://www.w3.org/1999/xlink" style="isolation:isolate" viewBox="0 0 24 24" width="24" height="24"><defs><clipPath id="_clipPath_pxAHU1FTtUkZyoUo8QZlmTzkmCHRvQ1E"><rect width="24" height="24"/></clipPath></defs><g clip-path="url(#_clipPath_pxAHU1FTtUkZyoUo8QZlmTzkmCHRvQ1E)"><path d=" M 22 5 L 22 5 C 22 4.448 21.552 4 21 4 L 21 4 Q 20 4 19 4 L 17 4 C 16.448 4 16 4.448 16 5 L 16 5 C 16 5.552 16.448 6 17 6 L 19 6 C 19.552 6 20 6.448 20 7 L 20 19 C 20 19.552 19.552 20 19 20 L 5 20 C 4.448 20 4 19.552 4 19 L 4 7 C 4 6.448 4.448 6 5 6 L 7 6 C 7.552 6 8 5.552 8 5 L 8 5 C 8 4.448 7.552 4 7 4 L 5 4 Q 4 4 3 4 L 3 4 C 2.448 4 2 4.448 2 5 L 2 5 Q 2 6 2 7 L 2 19 Q 2 20 2 21 L 2 21 C 2 21.552 2.448 22 3 22 L 3 22 Q 4 22 5 22 L 20 22 L 21 22 C 21.552 22 22 21.552 22 21 L 22 20 L 22 7 Q 22 6 22 5 Z " fill="rgb(0,0,0)"/><path d=" M 10.998 13.308 L 8.461 10.77 C 8.07 10.38 7.437 10.38 7.046 10.77 L 7.046 10.77 C 6.656 11.161 6.644 11.806 7.018 12.212 L 11.326 16.87 L 11.326 16.87 C 11.714 17.258 12.323 17.258 12.685 16.87 L 12.685 16.87 L 16.983 12.208 C 17.357 11.802 17.344 11.156 16.953 10.766 L 16.953 10.766 C 16.563 10.375 15.929 10.375 15.539 10.766 L 12.998 13.307 L 12.998 2.839 C 12.998 2.287 12.55 1.839 11.998 1.839 L 11.998 1.839 C 11.446 1.839 10.998 2.287 10.998 2.839 L 10.998 13.308 Z " fill="rgb(0,0,0)"/></g></svg>