<?xml version="1.0" standalone="no"?><!-- Generator: Gravit.io --><svg xmlns="http://www.w3.org/2000/svg" xmlns:xlink="http://www.w3.org/1999/xlink" style="isolation:isolate" viewBox="0 0 24 24" width="24" height="24"><defs><clipPath id="_clipPath_7s7KpwD9yhtUVg6zpHoUGCxgbEGqH5XY"><rect width="24" height="24"/></clipPath></defs><g clip-path="url(#_clipPath_7s7KpwD9yhtUVg6zpHoUGCxgbEGqH5XY)"><path d=" M 1 12 C 1 5.929 5.929 1 12 1 C 18.071 1 23 5.929 23 12 C 23 18.071 18.071 23 12 23 C 5.929 23 1 18.071 1 12 Z  M 3 12 C 3 7.033 7.033 3 12 3 C 16.967 3 21 7.033 21 12 C 21 16.967 16.967 21 12 21 C 7.033 21 3 16.967 3 12 Z " fill-rule="evenodd" fill="rgb(46,46,46)"/><path d=" M 13 14.65 L 15.539 12.111 C 15.929 11.721 16.563 11.721 16.953 12.111 L 16.953 12.111 C 17.344 12.501 17.344 13.135 16.953 13.525 L 13.406 17.072 L 13.411 17.076 L 12.703 17.783 C 12.313 18.174 11.679 18.174 11.289 17.783 L 7.047 13.541 C 6.656 13.151 6.656 12.517 7.047 12.127 L 7.047 12.127 C 7.437 11.736 8.071 11.736 8.461 12.127 L 11 14.666 L 11 6.924 C 11 6.372 11.448 5.924 12 5.924 L 12 5.924 C 12.552 5.924 13 6.372 13 6.924 L 13 14.65 Z " fill="rgb(46,46,46)"/></g></svg>