<?xml version="1.0" standalone="no"?><!-- Generator: Gravit.io --><svg xmlns="http://www.w3.org/2000/svg" xmlns:xlink="http://www.w3.org/1999/xlink" style="isolation:isolate" viewBox="0 0 24 24" width="24" height="24"><defs><clipPath id="_clipPath_fHYRUMPmERTR8ABp3yh1wMMKlMkuEaBc"><rect width="24" height="24"/></clipPath></defs><g clip-path="url(#_clipPath_fHYRUMPmERTR8ABp3yh1wMMKlMkuEaBc)"><path d=" M 20.411 9.604 C 21.375 10.235 22 11.286 22 12.472 C 22 14.419 20.317 16 18.244 16 L 5.756 16 C 3.683 16 2 14.419 2 12.472 C 2 11.049 2.9 9.821 4.2 9.272 C 4.119 8.968 4.083 8.648 4.083 8.319 C 4.083 5.835 6.1 3.819 8.583 3.819 C 9.396 3.819 10.159 4.035 10.816 4.414 C 11.793 2.953 13.46 2 15.347 2 C 18.383 2 20.847 4.464 20.847 7.5 C 20.847 8.248 20.698 8.962 20.411 9.604 Z " fill="rgb(255,255,255)" vector-effect="non-scaling-stroke" stroke-width="2" stroke="rgb(0,0,0)" stroke-linejoin="miter" stroke-linecap="square" stroke-miterlimit="3"/><path d=" M 13 19.289 L 14.129 18.16 C 14.519 17.77 15.153 17.77 15.543 18.16 L 15.543 18.16 C 15.933 18.55 15.933 19.184 15.543 19.574 L 12.715 22.403 C 12.325 22.793 11.691 22.793 11.301 22.403 L 10.593 21.695 L 10.594 21.695 L 8.457 19.559 C 8.067 19.168 8.067 18.535 8.457 18.144 L 8.457 18.144 C 8.847 17.754 9.481 17.754 9.871 18.144 L 11 19.273 L 11 13.862 C 11 13.31 11.448 12.862 12 12.862 L 12 12.862 C 12.552 12.862 13 13.31 13 13.862 L 13 19.289 Z " fill="rgb(0,0,0)"/></g></svg>