<?xml version="1.0" standalone="no"?><!-- Generator: Gravit.io --><svg xmlns="http://www.w3.org/2000/svg" xmlns:xlink="http://www.w3.org/1999/xlink" style="isolation:isolate" viewBox="0 0 24 24" width="24" height="24"><defs><clipPath id="_clipPath_xyhcKeSg5fBLUDqnNN0R5qJ0uLHEdp2P"><rect width="24" height="24"/></clipPath></defs><g clip-path="url(#_clipPath_xyhcKeSg5fBLUDqnNN0R5qJ0uLHEdp2P)"><path d=" M 10.496 10.053 L 5.996 10.082 C 5.444 10.085 5.296 10.421 5.665 10.831 L 8.554 14.044 L 11.443 17.256 C 11.813 17.667 12.404 17.66 12.764 17.242 L 15.554 14 L 18.344 10.758 C 18.704 10.34 18.548 10.003 17.996 10.006 L 13.496 10.034 L 13.496 3 C 13.496 2.448 13.048 2 12.496 2 L 11.496 2 C 10.944 2 10.496 2.448 10.496 3 L 10.496 10.053 Z " fill="rgb(46,46,46)"/><path d=" M 6 18.996 L 18 18.996 C 18.552 18.996 19 18.548 19 17.996 L 19 16.496 C 19 15.944 19.448 15.496 20 15.496 L 21 15.496 C 21.552 15.496 22 15.944 22 16.496 L 22 18.996 L 22 20.996 C 22 21.548 21.552 21.996 21 21.996 L 19 21.996 L 15.563 21.996 L 5 21.996 L 3 21.996 C 2.448 21.996 2 21.548 2 20.996 L 2 18.996 L 2 16.496 C 2 15.944 2.448 15.496 3 15.496 L 4 15.496 C 4.552 15.496 5 15.944 5 16.496 L 5 17.996 C 5 18.548 5.448 18.996 6 18.996 Z " fill="rgb(46,46,46)"/></g></svg>