<?xml version="1.0" standalone="no"?><!-- Generator: Gravit.io --><svg xmlns="http://www.w3.org/2000/svg" xmlns:xlink="http://www.w3.org/1999/xlink" style="isolation:isolate" viewBox="0 0 24 24" width="24" height="24"><defs><clipPath id="_clipPath_bqreoQKj7YEGwGsDB8wkKoKT8vdLBWGH"><rect width="24" height="24"/></clipPath></defs><g clip-path="url(#_clipPath_bqreoQKj7YEGwGsDB8wkKoKT8vdLBWGH)"><path d=" M 4 5 L 20 5 C 21.104 5 22 5.896 22 7 L 22 17 C 22 18.104 21.104 19 20 19 L 4 19 C 2.896 19 2 18.104 2 17 L 2 7 C 2 5.896 2.896 5 4 5 Z  M 5 7 L 19 7 C 19.552 7 20 7.448 20 8 L 20 16 C 20 16.552 19.552 17 19 17 L 5 17 C 4.448 17 4 16.552 4 16 L 4 8 C 4 7.448 4.448 7 5 7 Z " fill-rule="evenodd" fill="rgb(46,46,46)"/><path d=" M 12.015 11.737 L 5.348 5.773 L 4.015 6.966 L 10.681 12.93 L 10.681 12.93 C 11.417 13.588 12.612 13.588 13.348 12.93 L 13.348 12.93 L 20.015 6.966 L 18.681 5.773 L 12.015 11.737 Z " fill="rgb(46,46,46)"/></g></svg>