<?xml version="1.0" standalone="no"?><!-- Generator: Gravit.io --><svg xmlns="http://www.w3.org/2000/svg" xmlns:xlink="http://www.w3.org/1999/xlink" style="isolation:isolate" viewBox="0 0 24 24" width="24" height="24"><defs><clipPath id="_clipPath_eEpFWUQpW4c3o2AYFj1tlXOum758iKqc"><rect width="24" height="24"/></clipPath></defs><g clip-path="url(#_clipPath_eEpFWUQpW4c3o2AYFj1tlXOum758iKqc)"><path d=" M 1 12 C 1 5.929 5.929 1 12 1 C 18.071 1 23 5.929 23 12 C 23 18.071 18.071 23 12 23 C 5.929 23 1 18.071 1 12 Z  M 3 12 C 3 7.033 7.033 3 12 3 C 16.967 3 21 7.033 21 12 C 21 16.967 16.967 21 12 21 C 7.033 21 3 16.967 3 12 Z " fill-rule="evenodd" fill="rgb(46,46,46)"/><path d=" M 10.5 5.719 L 13.5 5.719 L 12.825 14.719 L 11.025 14.719 L 10.5 5.719 Z " fill="rgb(46,46,46)"/><path d=" M 10.5 16.781 C 10.5 15.953 11.172 15.281 12 15.281 C 12.828 15.281 13.5 15.953 13.5 16.781 C 13.5 17.609 12.828 18.281 12 18.281 C 11.172 18.281 10.5 17.609 10.5 16.781 Z " fill="rgb(46,46,46)"/></g></svg>