<?xml version="1.0" standalone="no"?><!-- Generator: Gravit.io --><svg xmlns="http://www.w3.org/2000/svg" xmlns:xlink="http://www.w3.org/1999/xlink" style="isolation:isolate" viewBox="0 0 24 24" width="24" height="24"><defs><clipPath id="_clipPath_QBrASM8LF0xB9Vm64yPlwARvwPL7Xdx0"><rect width="24" height="24"/></clipPath></defs><g clip-path="url(#_clipPath_QBrASM8LF0xB9Vm64yPlwARvwPL7Xdx0)"><path d=" M 16.649 22.907 L 12.112 22.953 L 7.575 23 L 4.334 19.825 L 1.093 16.649 L 1.047 12.112 L 1 7.575 L 4.175 4.334 L 7.351 1.093 L 11.888 1.047 L 16.425 1 L 19.666 4.175 L 22.907 7.351 L 22.953 11.888 L 23 16.425 L 19.825 19.666 L 16.649 22.907 Z  M 15.804 20.924 L 12.092 20.962 L 8.38 21 L 5.728 18.402 L 3.076 15.804 L 3.038 12.092 L 3 8.38 L 5.598 5.728 L 8.196 3.076 L 11.908 3.038 L 15.62 3 L 18.272 5.598 L 20.924 8.196 L 20.962 11.908 L 21 15.62 L 18.402 18.272 L 15.804 20.924 Z " fill-rule="evenodd" fill="rgb(46,46,46)"/><path d=" M 10.5 5.719 L 13.5 5.719 L 12.825 14.719 L 11.025 14.719 L 10.5 5.719 Z " fill="rgb(46,46,46)"/><path d=" M 10.5 16.781 C 10.5 15.953 11.172 15.281 12 15.281 C 12.828 15.281 13.5 15.953 13.5 16.781 C 13.5 17.609 12.828 18.281 12 18.281 C 11.172 18.281 10.5 17.609 10.5 16.781 Z " fill="rgb(46,46,46)"/></g></svg>