<?xml version="1.0" standalone="no"?><!-- Generator: Gravit.io --><svg xmlns="http://www.w3.org/2000/svg" xmlns:xlink="http://www.w3.org/1999/xlink" style="isolation:isolate" viewBox="0 0 24 24" width="24" height="24"><defs><clipPath id="_clipPath_w7z6U5R2pTw7wYNiMe8nviXXTviAaWBY"><rect width="24" height="24"/></clipPath></defs><g clip-path="url(#_clipPath_w7z6U5R2pTw7wYNiMe8nviXXTviAaWBY)"><path d=" M 11.468 3.077 L 1.524 20.415 C 1.249 20.894 1.474 21.283 2.026 21.283 L 21.975 21.283 C 22.527 21.283 22.751 20.895 22.475 20.417 L 12.466 3.076 C 12.19 2.598 11.743 2.598 11.468 3.077 Z  M 11.978 6.231 L 4.443 19.283 L 19.514 19.283 L 11.978 6.231 Z " fill-rule="evenodd" fill="rgb(46,46,46)"/><path d=" M 10.5 9.875 L 13.5 9.875 L 12.825 14.875 L 11.025 14.875 L 10.5 9.875 Z " fill="rgb(46,46,46)"/><path d=" M 10.5 16.781 C 10.5 15.953 11.172 15.281 12 15.281 C 12.828 15.281 13.5 15.953 13.5 16.781 C 13.5 17.609 12.828 18.281 12 18.281 C 11.172 18.281 10.5 17.609 10.5 16.781 Z " fill="rgb(46,46,46)"/></g></svg>