<?xml version="1.0" standalone="no"?><!-- Generator: Gravit.io --><svg xmlns="http://www.w3.org/2000/svg" xmlns:xlink="http://www.w3.org/1999/xlink" style="isolation:isolate" viewBox="0 0 24 24" width="24" height="24"><defs><clipPath id="_clipPath_2C1VIA6A4i6cTSM16TEcyA1Q74cNPA78"><rect width="24" height="24"/></clipPath></defs><g clip-path="url(#_clipPath_2C1VIA6A4i6cTSM16TEcyA1Q74cNPA78)"><path d=" M 3.04 5.51 L 3.04 18.51 C 3.04 18.786 3.264 19.01 3.54 19.01 L 16.54 19.01 C 16.816 19.01 17.04 18.786 17.04 18.51 L 17.04 13.01 C 17.04 12.458 17.488 12.01 18.04 12.01 L 18.04 12.01 C 18.592 12.01 19.04 12.458 19.04 13.01 L 19.04 19.01 L 19.04 20.01 C 19.04 20.562 18.592 21.01 18.04 21.01 L 17.04 21.01 L 3.04 21.01 L 2.04 21.01 C 1.488 21.01 1.04 20.562 1.04 20.01 L 1.04 19.01 L 1.04 5.01 L 1.04 4.01 C 1.04 3.458 1.488 3.01 2.04 3.01 L 3.04 3.01 L 12.04 3.01 C 12.592 3.01 13.04 3.458 13.04 4.01 L 13.04 4.01 C 13.04 4.562 12.592 5.01 12.04 5.01 L 3.54 5.01 C 3.264 5.01 3.04 5.234 3.04 5.51 Z " fill="rgb(46,46,46)"/><path d=" M 19.545 4.99 L 16.96 4.99 C 16.408 4.99 15.96 4.542 15.96 3.99 L 15.96 3.99 C 15.96 3.438 16.408 2.99 16.96 2.99 L 20.96 2.99 L 21.96 2.99 C 22.512 2.99 22.96 3.438 22.96 3.99 L 22.96 4.405 L 22.96 8.99 C 22.96 9.542 22.512 9.99 21.96 9.99 L 21.96 9.99 C 21.408 9.99 20.96 9.542 20.96 8.99 L 20.96 6.405 L 12.035 15.329 C 11.645 15.719 11.011 15.719 10.621 15.329 L 10.621 15.329 C 10.231 14.939 10.231 14.305 10.621 13.915 L 19.545 4.99 Z " fill="rgb(46,46,46)"/></g></svg>