<?xml version="1.0" standalone="no"?><!-- Generator: Gravit.io --><svg xmlns="http://www.w3.org/2000/svg" xmlns:xlink="http://www.w3.org/1999/xlink" style="isolation:isolate" viewBox="0 0 24 24" width="24" height="24"><defs><clipPath id="_clipPath_eIMZ8OKDFDLmGmFAuBY1RSboJP1vRMaH"><rect width="24" height="24"/></clipPath></defs><g clip-path="url(#_clipPath_eIMZ8OKDFDLmGmFAuBY1RSboJP1vRMaH)"><path d=" M 2 1 L 22 1 C 22.552 1 23 1.448 23 2 L 23 22 C 23 22.552 22.552 23 22 23 L 2 23 C 1.448 23 1 22.552 1 22 L 1 2 C 1 1.448 1.448 1 2 1 Z  M 4 3 L 20 3 C 20.552 3 21 3.448 21 4 L 21 20 C 21 20.552 20.552 21 20 21 L 4 21 C 3.448 21 3 20.552 3 20 L 3 4 C 3 3.448 3.448 3 4 3 Z " fill-rule="evenodd" fill="rgb(46,46,46)"/><path d=" M 10.75 10 L 10.75 7.5 L 10.75 7 C 10.75 5.896 11.646 5 12.75 5 L 13.25 5 L 16.25 5 L 16.25 7.5 L 14.25 7.5 C 13.698 7.5 13.25 7.948 13.25 8.5 L 13.25 10 L 16.25 10 L 16 12.5 L 13.25 12.5 L 13.25 19 L 10.75 19 L 10.75 12.5 L 7.75 12.5 L 7.75 10 L 10.75 10 Z " fill="rgb(46,46,46)"/></g></svg>