<?xml version="1.0" standalone="no"?><!-- Generator: Gravit.io --><svg xmlns="http://www.w3.org/2000/svg" xmlns:xlink="http://www.w3.org/1999/xlink" style="isolation:isolate" viewBox="0 0 24 24" width="24" height="24"><defs><clipPath id="_clipPath_MUI1TxD5LwL5wPI0d4rsjud3sxHbOLTY"><rect width="24" height="24"/></clipPath></defs><g clip-path="url(#_clipPath_MUI1TxD5LwL5wPI0d4rsjud3sxHbOLTY)"><path d=" M 1 12 C 1 5.929 5.929 1 12 1 C 18.071 1 23 5.929 23 12 C 23 18.071 18.071 23 12 23 C 5.929 23 1 18.071 1 12 Z  M 3 12 C 3 7.033 7.033 3 12 3 C 16.967 3 21 7.033 21 12 C 21 16.967 16.967 21 12 21 C 7.033 21 3 16.967 3 12 Z " fill-rule="evenodd" fill="rgb(46,46,46)"/><path d=" M 10.75 10.143 L 10.75 7.821 L 10.75 7.427 C 10.75 6.364 11.614 5.5 12.677 5.5 L 13.25 5.5 L 16.25 5.5 L 16.25 7.821 L 14.214 7.821 C 13.682 7.821 13.25 8.253 13.25 8.785 L 13.25 10.143 L 16.25 10.143 L 16 12.464 L 13.25 12.464 L 13.25 18.5 L 10.75 18.5 L 10.75 12.464 L 7.75 12.464 L 7.75 10.143 L 10.75 10.143 Z " fill="rgb(46,46,46)"/></g></svg>