<?xml version="1.0" standalone="no"?><!-- Generator: Gravit.io --><svg xmlns="http://www.w3.org/2000/svg" xmlns:xlink="http://www.w3.org/1999/xlink" style="isolation:isolate" viewBox="0 0 24 24" width="24" height="24"><defs><clipPath id="_clipPath_HNSbd0SyrzGW53tPfHjPdWDriieJSl5O"><rect width="24" height="24"/></clipPath></defs><g clip-path="url(#_clipPath_HNSbd0SyrzGW53tPfHjPdWDriieJSl5O)"><path d=" M 10.231 15.197 L 10.232 19 C 10.232 19.552 10.582 19.72 11.013 19.375 L 15.231 15.998 L 19.448 12.621 C 19.879 12.276 19.879 11.716 19.448 11.371 L 15.229 7.998 L 11.01 4.625 C 10.579 4.28 10.229 4.448 10.229 5 L 10.23 8.798 L 9.229 7.998 L 5.01 4.625 C 4.579 4.28 4.229 4.448 4.229 5 L 4.231 12 L 4.232 19 C 4.232 19.552 4.582 19.72 5.013 19.375 L 9.231 15.998 L 10.231 15.197 Z " fill="rgb(46,46,46)"/></g></svg>