<?xml version="1.0" standalone="no"?><!-- Generator: Gravit.io --><svg xmlns="http://www.w3.org/2000/svg" xmlns:xlink="http://www.w3.org/1999/xlink" style="isolation:isolate" viewBox="0 0 24 24" width="24" height="24"><defs><clipPath id="_clipPath_HHCWHMpWpIiBZlW3Cqt8iLAXnrs3s4hc"><rect width="24" height="24"/></clipPath></defs><g clip-path="url(#_clipPath_HHCWHMpWpIiBZlW3Cqt8iLAXnrs3s4hc)"><path d=" M 2.981 21 L 2.981 22 C 2.981 22.552 3.429 23 3.981 23 L 4.981 23 L 18.981 23 L 19.981 23 C 20.533 23 20.982 22.552 20.984 22 L 21.019 8.5 C 21.02 8.224 20.861 7.842 20.665 7.648 L 14.336 1.36 C 14.14 1.166 13.757 1.008 13.481 1.007 L 4.981 1 L 3.981 1 C 3.429 1 2.981 1.448 2.981 2 L 2.981 3 L 2.981 21 Z  M 4.981 21 L 18.981 21 L 18.981 10 L 13.981 10 L 12.981 10 C 12.429 10 11.981 9.552 11.981 9 L 11.981 8 L 11.981 3 L 4.981 3 L 4.981 21 Z  M 13.981 3.836 L 18.145 8 L 13.981 8 L 13.981 3.836 L 13.981 3.836 Z " fill-rule="evenodd" fill="rgb(46,46,46)"/><path d=" M 11.586 18.95 L 17.071 13.464 C 17.461 13.074 17.461 12.441 17.071 12.05 L 17.071 12.05 C 16.681 11.66 16.047 11.66 15.657 12.05 L 10.879 16.828 L 8.343 14.293 C 7.953 13.903 7.319 13.903 6.929 14.293 L 6.929 14.293 C 6.539 14.683 6.539 15.317 6.929 15.707 L 10.172 18.95 C 10.562 19.34 11.196 19.34 11.586 18.95 Z " fill="rgb(46,46,46)"/></g></svg>