<?xml version="1.0" standalone="no"?><!-- Generator: Gravit.io --><svg xmlns="http://www.w3.org/2000/svg" xmlns:xlink="http://www.w3.org/1999/xlink" style="isolation:isolate" viewBox="0 0 24 24" width="24" height="24"><defs><clipPath id="_clipPath_kXqi5AEB9y6MQsgjRu3pLl1jNDUh2WfF"><rect width="24" height="24"/></clipPath></defs><g clip-path="url(#_clipPath_kXqi5AEB9y6MQsgjRu3pLl1jNDUh2WfF)"><path d=" M 8.912 21.211 L 8.959 12.442 C 8.962 11.89 8.74 11.054 8.464 10.576 L 4.176 3.149 L 4.028 2.889 C 3.484 1.928 3.938 1.149 5.042 1.149 L 5.331 1.149 L 18.642 1.149 L 18.964 1.149 C 20.068 1.149 20.512 1.923 19.956 2.876 L 19.797 3.149 L 15.464 10.653 C 15.188 11.131 14.967 11.967 14.972 12.519 L 15.009 17.265 L 14.94 19.087 C 14.919 19.639 14.504 20.293 14.015 20.548 L 10.675 22.288 C 9.696 22.797 8.906 22.315 8.912 21.211 Z  M 10.845 19.711 L 10.958 10.649 C 10.961 10.373 10.843 9.96 10.695 9.728 L 6.755 3.57 C 6.606 3.338 6.709 3.149 6.985 3.149 L 16.987 3.149 C 17.263 3.149 17.366 3.337 17.216 3.569 L 13.235 9.729 C 13.086 9.961 12.964 10.373 12.964 10.649 L 12.964 18.411 C 12.964 18.687 12.773 19.028 12.538 19.172 L 11.265 19.95 C 11.03 20.094 10.842 19.987 10.845 19.711 Z " fill-rule="evenodd" fill="rgb(46,46,46)"/></g></svg>