<?xml version="1.0" standalone="no"?><!-- Generator: Gravit.io --><svg xmlns="http://www.w3.org/2000/svg" xmlns:xlink="http://www.w3.org/1999/xlink" style="isolation:isolate" viewBox="0 0 24 24" width="24" height="24"><defs><clipPath id="_clipPath_ph1UYoauJx43rLdwtFbGwxfBBG3bU2UY"><rect width="24" height="24"/></clipPath></defs><g clip-path="url(#_clipPath_ph1UYoauJx43rLdwtFbGwxfBBG3bU2UY)"><path d=" M 7.895 7 L 17.24 7 C 17.763 7 18.188 7.425 18.188 7.948 L 18.188 18.052 C 18.188 18.575 17.763 19 17.24 19 L 2.947 19 C 2.424 19 1.999 18.575 1.999 18.052 L 1.999 8.052 L 1.999 7.948 L 1.999 5.948 C 1.999 5.425 2.424 5 2.947 5 L 6.447 5 C 6.97 5 7.395 5.425 7.395 5.948 L 7.395 6.5 C 7.395 6.776 7.619 7 7.895 7 Z " fill="rgb(255,255,255)" vector-effect="non-scaling-stroke" stroke-width="2" stroke="rgb(46,46,46)" stroke-linejoin="miter" stroke-linecap="square" stroke-miterlimit="3"/><path d="M 7.101 11 L 21.394 11 C 21.917 11 22.146 11.377 21.905 11.842 L 18.625 18.158 C 18.384 18.623 17.763 19 17.24 19 L 2.947 19 C 2.424 19 2.195 18.623 2.436 18.158 L 5.716 11.842 C 5.957 11.377 6.578 11 7.101 11 Z" style="stroke:none;fill:#FFFFFF;stroke-miterlimit:10;"/><path d="M 7.101 11 L 21.394 11 C 21.917 11 22.146 11.377 21.905 11.842 L 18.625 18.158 C 18.384 18.623 17.763 19 17.24 19 L 2.947 19 C 2.424 19 2.195 18.623 2.436 18.158 L 5.716 11.842 C 5.957 11.377 6.578 11 7.101 11 Z" style="fill:none;stroke:#2E2E2E;stroke-width:1.8;stroke-linecap:square;stroke-miterlimit:3;"/></g></svg>