<?xml version="1.0" standalone="no"?><!-- Generator: Gravit.io --><svg xmlns="http://www.w3.org/2000/svg" xmlns:xlink="http://www.w3.org/1999/xlink" style="isolation:isolate" viewBox="0 0 24 24" width="24" height="24"><defs><clipPath id="_clipPath_gHqWgcroIS4aql9br82zaqiVy2TEgPRv"><rect width="24" height="24"/></clipPath></defs><g clip-path="url(#_clipPath_gHqWgcroIS4aql9br82zaqiVy2TEgPRv)"><path d=" M 2.564 14.316 L 7.296 10.316 L 11.264 6.961 C 11.686 6.605 12.372 6.603 12.795 6.957 L 16.796 10.306 L 21.564 14.296 L 12.064 14.306 L 2.564 14.316 Z  M 15.064 14.316 L 21.564 14.316 L 21.564 21.316 C 21.564 21.867 21.116 22.316 20.564 22.316 L 16.064 22.316 C 15.512 22.316 15.064 21.867 15.064 21.316 L 15.064 14.316 Z  M 2.564 14.316 L 9.064 14.316 L 9.064 21.316 C 9.064 21.867 8.616 22.316 8.064 22.316 L 3.564 22.316 C 3.012 22.316 2.564 21.867 2.564 21.316 L 2.564 14.316 Z " fill-rule="evenodd" fill="rgb(46,46,46)"/><path d=" M 18.064 9.272 L 12.933 4.98 C 12.51 4.625 11.824 4.627 11.402 4.983 L 3.12 11.977 C 2.699 12.333 2.067 12.28 1.711 11.859 L 1.711 11.859 C 1.355 11.437 1.408 10.805 1.83 10.449 L 11.445 2.33 C 11.866 1.974 12.55 1.975 12.97 2.332 L 18.064 6.664 L 18.064 5.316 C 18.064 4.764 18.512 4.316 19.064 4.316 L 19.064 4.316 C 19.616 4.316 20.064 4.764 20.064 5.316 L 20.064 8.337 L 22.167 10.097 C 22.59 10.451 22.647 11.082 22.292 11.506 L 22.292 11.506 C 21.938 11.929 21.307 11.985 20.884 11.631 L 18.116 9.316 L 18.064 9.316 L 18.064 9.272 Z " fill="rgb(46,46,46)"/></g></svg>