<?xml version="1.0" standalone="no"?><!-- Generator: Gravit.io --><svg xmlns="http://www.w3.org/2000/svg" xmlns:xlink="http://www.w3.org/1999/xlink" style="isolation:isolate" viewBox="0 0 34 34" width="34" height="34"><defs><clipPath id="_clipPath_5IZwEjwjfZJJJ2d96x7Id5gOO262feyy"><rect width="34" height="34"/></clipPath></defs><g clip-path="url(#_clipPath_5IZwEjwjfZJJJ2d96x7Id5gOO262feyy)"><path d=" M 2.3 14.5 L 16.551 4.291 C 16.775 4.13 17.14 4.13 17.365 4.29 L 31.7 14.5" fill="none" vector-effect="non-scaling-stroke" stroke-width="2.5" stroke="rgb(255,255,255)" stroke-linejoin="miter" stroke-linecap="square" stroke-miterlimit="3"/><path d=" M 7.403 16.471 L 16.603 9.696 C 16.826 9.533 17.187 9.532 17.411 9.694 L 26.595 16.362 C 26.819 16.524 26.922 16.866 26.825 17.124 L 22.71 28.132 C 22.614 28.39 22.311 28.6 22.035 28.6 L 17 28.6 L 12 28.6 C 11.724 28.6 11.42 28.391 11.322 28.133 L 7.178 17.235 C 7.08 16.977 7.18 16.635 7.403 16.471 Z " fill="none" vector-effect="non-scaling-stroke" stroke-width="2.5" stroke="rgb(255,255,255)" stroke-linejoin="miter" stroke-linecap="square" stroke-miterlimit="3"/><path d=" M 14.5 20.75 C 14.5 19.37 15.62 18.25 17 18.25 C 18.38 18.25 19.5 19.37 19.5 20.75 C 19.5 22.13 18.38 23.25 17 23.25 C 15.62 23.25 14.5 22.13 14.5 20.75 Z " fill="rgb(255,255,255)"/></g></svg>