<?xml version="1.0" standalone="no"?><!-- Generator: Gravit.io --><svg xmlns="http://www.w3.org/2000/svg" xmlns:xlink="http://www.w3.org/1999/xlink" style="isolation:isolate" viewBox="0 0 24 24" width="24" height="24"><defs><clipPath id="_clipPath_ttHmmIfn5WDZeGWLwKwKjWZeFfzYfwgM"><rect width="24" height="24"/></clipPath></defs><g clip-path="url(#_clipPath_ttHmmIfn5WDZeGWLwKwKjWZeFfzYfwgM)"><path d=" M 5 4 C 4.448 4 4 4.448 4 5 L 4 19 C 4 19.552 4.448 20 5 20 L 19 20 C 19.552 20 20 19.552 20 19 L 20 5 C 20 4.448 19.552 4 19 4 L 5 4 L 5 4 Z  M 6 10.938 L 6 10.938 L 6 17 C 6 17.552 6.448 18 7 18 L 17 18 C 17.552 18 18 17.552 18 17 L 18 10.938 L 6 10.938 Z " fill-rule="evenodd" fill="rgb(46,46,46)"/><path d=" M 9 13 C 9 11.344 10.344 10 12 10 C 13.656 10 15 11.344 15 13 C 15 14.656 13.656 16 12 16 C 10.344 16 9 14.656 9 13 Z  M 10 13 C 10 11.896 10.896 11 12 11 C 13.104 11 14 11.896 14 13 C 14 14.104 13.104 15 12 15 C 10.896 15 10 14.104 10 13 Z " fill-rule="evenodd" fill="rgb(46,46,46)"/><path d=" M 16 7 L 18 7 L 18 9 L 16 9 L 16 7 Z " fill="rgb(255,255,255)"/></g></svg>