<?xml version="1.0" standalone="no"?><!-- Generator: Gravit.io --><svg xmlns="http://www.w3.org/2000/svg" xmlns:xlink="http://www.w3.org/1999/xlink" style="isolation:isolate" viewBox="0 0 24 24" width="24" height="24"><defs><clipPath id="_clipPath_mLFe5B5G7FJAp3gigaZ7M0bnyJOqi3PP"><rect width="24" height="24"/></clipPath></defs><g clip-path="url(#_clipPath_mLFe5B5G7FJAp3gigaZ7M0bnyJOqi3PP)"><path d=" M 7 1 L 17 1 C 20.311 1 23 3.689 23 7 L 23 17 C 23 20.311 20.311 23 17 23 L 7 23 C 3.689 23 1 20.311 1 17 L 1 7 C 1 3.689 3.689 1 7 1 Z  M 7 3 L 17 3 C 19.208 3 21 4.792 21 7 L 21 17 C 21 19.208 19.208 21 17 21 L 7 21 C 4.792 21 3 19.208 3 17 L 3 7 C 3 4.792 4.792 3 7 3 Z " fill-rule="evenodd" fill="rgb(46,46,46)"/><path d=" M 7 12 C 7 9.24 9.24 7 12 7 C 14.76 7 17 9.24 17 12 C 17 14.76 14.76 17 12 17 C 9.24 17 7 14.76 7 12 Z  M 9 12 C 9 10.344 10.344 9 12 9 C 13.656 9 15 10.344 15 12 C 15 13.656 13.656 15 12 15 C 10.344 15 9 13.656 9 12 Z " fill-rule="evenodd" fill="rgb(46,46,46)"/><path d=" M 15.5 6.25 C 15.5 5.284 16.284 4.5 17.25 4.5 C 18.216 4.5 19 5.284 19 6.25 C 19 7.216 18.216 8 17.25 8 C 16.284 8 15.5 7.216 15.5 6.25 Z " fill="rgb(46,46,46)"/></g></svg>