<?xml version="1.0" standalone="no"?><!-- Generator: Gravit.io --><svg xmlns="http://www.w3.org/2000/svg" xmlns:xlink="http://www.w3.org/1999/xlink" style="isolation:isolate" viewBox="0 0 24 24" width="24" height="24"><defs><clipPath id="_clipPath_674ill3ERbzwaKl2LPF3nfYLfkV8PQnr"><rect width="24" height="24"/></clipPath></defs><g clip-path="url(#_clipPath_674ill3ERbzwaKl2LPF3nfYLfkV8PQnr)"><path d=" M 1 12 C 1 5.929 5.929 1 12 1 C 18.071 1 23 5.929 23 12 C 23 18.071 18.071 23 12 23 C 5.929 23 1 18.071 1 12 Z  M 3 12 C 3 7.033 7.033 3 12 3 C 16.967 3 21 7.033 21 12 C 21 16.967 16.967 21 12 21 C 7.033 21 3 16.967 3 12 Z " fill-rule="evenodd" fill="rgb(46,46,46)"/><path d=" M 8.063 7.5 C 7.752 7.5 7.5 7.752 7.5 8.063 L 7.5 15.938 C 7.5 16.248 7.752 16.5 8.063 16.5 L 15.938 16.5 C 16.248 16.5 16.5 16.248 16.5 15.938 L 16.5 8.063 C 16.5 7.752 16.248 7.5 15.938 7.5 L 8.063 7.5 L 8.063 7.5 Z  M 8.625 11.402 L 8.625 11.402 L 8.625 14.813 C 8.625 15.123 8.877 15.375 9.188 15.375 L 14.813 15.375 C 15.123 15.375 15.375 15.123 15.375 14.813 L 15.375 11.402 L 8.625 11.402 Z " fill-rule="evenodd" fill="rgb(46,46,46)"/><path d=" M 10.5 12.5 C 10.5 11.672 11.172 11 12 11 C 12.828 11 13.5 11.672 13.5 12.5 C 13.5 13.328 12.828 14 12 14 C 11.172 14 10.5 13.328 10.5 12.5 Z  M 11 12.5 C 11 11.948 11.448 11.5 12 11.5 C 12.552 11.5 13 11.948 13 12.5 C 13 13.052 12.552 13.5 12 13.5 C 11.448 13.5 11 13.052 11 12.5 Z " fill-rule="evenodd" fill="rgb(46,46,46)"/><path d=" M 14 9.5 L 15 9.5 L 15 10.5 L 14 10.5 L 14 9.5 Z " fill="rgb(255,255,255)"/></g></svg>