<?xml version="1.0" standalone="no"?><!-- Generator: Gravit.io --><svg xmlns="http://www.w3.org/2000/svg" xmlns:xlink="http://www.w3.org/1999/xlink" style="isolation:isolate" viewBox="0 0 24 24" width="24" height="24"><defs><clipPath id="_clipPath_ClG9FCJx8zjUgiI3IuNNd0CJMNE9QBFz"><rect width="24" height="24"/></clipPath></defs><g clip-path="url(#_clipPath_ClG9FCJx8zjUgiI3IuNNd0CJMNE9QBFz)"><path d=" M 6.5 1 L 17.5 1 C 18.604 1 19.5 1.896 19.5 3 L 19.5 21 C 19.5 22.104 18.604 23 17.5 23 L 6.5 23 C 5.396 23 4.5 22.104 4.5 21 L 4.5 3 C 4.5 1.896 5.396 1 6.5 1 L 6.5 1 Z  M 17.5 15 L 17.5 20 C 17.5 20.552 17.052 21 16.5 21 L 7.5 21 C 6.948 21 6.5 20.552 6.5 20 L 6.5 15 L 17.5 15 Z  M 17.5 13 L 17.5 4 C 17.5 3.448 17.052 3 16.5 3 L 7.5 3 L 7.5 3 C 6.948 3 6.5 3.448 6.5 4 L 6.5 13 L 17.5 13 Z " fill-rule="evenodd" fill="rgb(46,46,46)"/><path d=" M 9.75 18.063 C 9.75 16.821 10.758 15.813 12 15.813 C 13.242 15.813 14.25 16.821 14.25 18.063 C 14.25 19.304 13.242 20.313 12 20.313 C 10.758 20.313 9.75 19.304 9.75 18.063 Z " fill="rgb(46,46,46)"/></g></svg>