<?xml version="1.0" standalone="no"?><!-- Generator: Gravit.io --><svg xmlns="http://www.w3.org/2000/svg" xmlns:xlink="http://www.w3.org/1999/xlink" style="isolation:isolate" viewBox="0 0 24 24" width="24" height="24"><defs><clipPath id="_clipPath_DMm3LtyObc4Ml8YiepdtOP4Rj3xNoIQ8"><rect width="24" height="24"/></clipPath></defs><g clip-path="url(#_clipPath_DMm3LtyObc4Ml8YiepdtOP4Rj3xNoIQ8)"><path d=" M 1 12 C 1 5.929 5.929 1 12 1 C 18.071 1 23 5.929 23 12 C 23 18.071 18.071 23 12 23 C 5.929 23 1 18.071 1 12 Z  M 3 12 C 3 7.033 7.033 3 12 3 C 16.967 3 21 7.033 21 12 C 21 16.967 16.967 21 12 21 C 7.033 21 3 16.967 3 12 Z " fill-rule="evenodd" fill="rgb(46,46,46)"/><path d=" M 9.35 13 L 11.889 15.539 C 12.279 15.929 12.279 16.563 11.889 16.953 L 11.889 16.953 C 11.499 17.344 10.865 17.344 10.475 16.953 L 6.928 13.406 L 6.924 13.411 L 6.217 12.703 C 5.826 12.313 5.826 11.679 6.217 11.289 L 10.459 7.047 C 10.849 6.656 11.483 6.656 11.873 7.047 L 11.873 7.047 C 12.264 7.437 12.264 8.071 11.873 8.461 L 9.334 11 L 17.076 11 C 17.628 11 18.076 11.448 18.076 12 L 18.076 12 C 18.076 12.552 17.628 13 17.076 13 L 9.35 13 Z " fill="rgb(46,46,46)"/></g></svg>