<?xml version="1.0" standalone="no"?><!-- Generator: Gravit.io --><svg xmlns="http://www.w3.org/2000/svg" xmlns:xlink="http://www.w3.org/1999/xlink" style="isolation:isolate" viewBox="0 0 24 24" width="24" height="24"><defs><clipPath id="_clipPath_McMM0iH9Na6UVG2ueyKao2fFWlU4kH1D"><rect width="24" height="24"/></clipPath></defs><g clip-path="url(#_clipPath_McMM0iH9Na6UVG2ueyKao2fFWlU4kH1D)"><path d=" M 8.496 12.998 L 12.45 16.951 C 12.84 17.342 12.84 17.975 12.45 18.366 L 12.45 18.366 C 12.059 18.756 11.426 18.756 11.035 18.366 L 5.379 12.709 C 4.988 12.318 4.988 11.685 5.379 11.295 L 6.086 10.587 L 6.088 10.59 L 11.043 5.634 C 11.434 5.244 12.067 5.244 12.457 5.634 L 12.457 5.634 C 12.848 6.025 12.848 6.658 12.457 7.049 L 8.508 10.998 L 17.914 10.998 C 18.466 10.998 18.914 11.446 18.914 11.998 L 18.914 11.998 C 18.914 12.55 18.466 12.998 17.914 12.998 L 8.496 12.998 Z " fill="rgb(46,46,46)"/></g></svg>