<?xml version="1.0" standalone="no"?><!-- Generator: Gravit.io --><svg xmlns="http://www.w3.org/2000/svg" xmlns:xlink="http://www.w3.org/1999/xlink" style="isolation:isolate" viewBox="0 0 24 24" width="24" height="24"><defs><clipPath id="_clipPath_Cz7IzinXlwbw5vIQ6T17qXX3H3iuXb79"><rect width="24" height="24"/></clipPath></defs><g clip-path="url(#_clipPath_Cz7IzinXlwbw5vIQ6T17qXX3H3iuXb79)"><path d=" M 10.964 10.586 L 10.257 11.293 C 9.867 11.683 9.867 12.317 10.257 12.707 L 10.964 13.414 L 17.328 19.778 C 17.719 20.168 18.352 20.168 18.743 19.778 L 18.743 19.778 C 19.133 19.388 19.133 18.754 18.743 18.364 L 12.379 12 L 18.743 5.636 C 19.133 5.246 19.133 4.612 18.743 4.222 L 18.743 4.222 C 18.352 3.832 17.719 3.832 17.328 4.222 L 10.964 10.586 Z " fill="rgb(46,46,46)"/><path d=" M 5.964 10.586 L 5.257 11.293 C 4.867 11.683 4.867 12.317 5.257 12.707 L 5.964 13.414 L 12.328 19.778 C 12.719 20.168 13.352 20.168 13.743 19.778 L 13.743 19.778 C 14.133 19.388 14.133 18.754 13.743 18.364 L 7.379 12 L 13.743 5.636 C 14.133 5.246 14.133 4.612 13.743 4.222 L 13.743 4.222 C 13.352 3.832 12.719 3.832 12.328 4.222 L 5.964 10.586 Z " fill="rgb(46,46,46)"/></g></svg>