<?xml version="1.0" standalone="no"?><!-- Generator: Gravit.io --><svg xmlns="http://www.w3.org/2000/svg" xmlns:xlink="http://www.w3.org/1999/xlink" style="isolation:isolate" viewBox="0 0 24 24" width="24" height="24"><defs><clipPath id="_clipPath_9nEzJbxFUQtsmQg8QSGkBl0W2Bt0iUXQ"><rect width="24" height="24"/></clipPath></defs><g clip-path="url(#_clipPath_9nEzJbxFUQtsmQg8QSGkBl0W2Bt0iUXQ)"><path d=" M 1 12 C 1 5.929 5.929 1 12 1 C 18.071 1 23 5.929 23 12 C 23 18.071 18.071 23 12 23 C 5.929 23 1 18.071 1 12 Z  M 3 12 C 3 7.033 7.033 3 12 3 C 16.967 3 21 7.033 21 12 C 21 16.967 16.967 21 12 21 C 7.033 21 3 16.967 3 12 Z " fill-rule="evenodd" fill="rgb(46,46,46)"/><path d=" M 6.5 7 L 7.5 7 C 8.052 7 8.5 7.448 8.5 8 L 8.5 8 C 8.5 8.552 8.052 9 7.5 9 L 6.5 9 C 5.948 9 5.5 8.552 5.5 8 L 5.5 8 C 5.5 7.448 5.948 7 6.5 7 Z " fill="rgb(46,46,46)"/><path d=" M 11.655 7 L 17.345 7 C 17.983 7 18.5 7.448 18.5 8 L 18.5 8 C 18.5 8.552 17.983 9 17.345 9 L 11.655 9 C 11.017 9 10.5 8.552 10.5 8 L 10.5 8 C 10.5 7.448 11.017 7 11.655 7 Z " fill="rgb(46,46,46)"/><path d=" M 11.655 11 L 17.345 11 C 17.983 11 18.5 11.448 18.5 12 L 18.5 12 C 18.5 12.552 17.983 13 17.345 13 L 11.655 13 C 11.017 13 10.5 12.552 10.5 12 L 10.5 12 C 10.5 11.448 11.017 11 11.655 11 Z " fill="rgb(46,46,46)"/><path d=" M 11.655 15 L 17.345 15 C 17.983 15 18.5 15.448 18.5 16 L 18.5 16 C 18.5 16.552 17.983 17 17.345 17 L 11.655 17 C 11.017 17 10.5 16.552 10.5 16 L 10.5 16 C 10.5 15.448 11.017 15 11.655 15 Z " fill="rgb(46,46,46)"/><path d=" M 6.5 11 L 7.5 11 C 8.052 11 8.5 11.448 8.5 12 L 8.5 12 C 8.5 12.552 8.052 13 7.5 13 L 6.5 13 C 5.948 13 5.5 12.552 5.5 12 L 5.5 12 C 5.5 11.448 5.948 11 6.5 11 Z " fill="rgb(46,46,46)"/><path d=" M 6.5 15 L 7.5 15 C 8.052 15 8.5 15.448 8.5 16 L 8.5 16 C 8.5 16.552 8.052 17 7.5 17 L 6.5 17 C 5.948 17 5.5 16.552 5.5 16 L 5.5 16 C 5.5 15.448 5.948 15 6.5 15 Z " fill="rgb(46,46,46)"/></g></svg>