<?xml version="1.0" standalone="no"?><!-- Generator: Gravit.io --><svg xmlns="http://www.w3.org/2000/svg" xmlns:xlink="http://www.w3.org/1999/xlink" style="isolation:isolate" viewBox="0 0 24 24" width="24" height="24"><defs><clipPath id="_clipPath_LC6m5YziCoq8sgQNZvCRIBmUTVeZme1M"><rect width="24" height="24"/></clipPath></defs><g clip-path="url(#_clipPath_LC6m5YziCoq8sgQNZvCRIBmUTVeZme1M)"><path d=" M 6 6.5 L 18 6.5 C 19.104 6.5 20 7.396 20 8.5 L 20 20.5 C 20 21.604 19.104 22.5 18 22.5 L 6 22.5 C 4.896 22.5 4 21.604 4 20.5 L 4 8.5 C 4 7.396 4.896 6.5 6 6.5 Z  M 7 8.5 L 17 8.5 C 17.552 8.5 18 8.948 18 9.5 L 18 19.5 C 18 20.052 17.552 20.5 17 20.5 L 7 20.5 C 6.448 20.5 6 20.052 6 19.5 L 6 9.5 C 6 8.948 6.448 8.5 7 8.5 Z " fill-rule="evenodd" fill="rgb(46,46,46)"/><path d=" M 10.5 14.5 C 10.5 13.672 11.172 13 12 13 C 12.828 13 13.5 13.672 13.5 14.5 C 13.5 15.328 12.828 16 12 16 C 11.172 16 10.5 15.328 10.5 14.5 Z " fill="rgb(46,46,46)"/><path d=" M 6.5 7 C 6.5 3.964 8.964 1.5 12 1.5 C 15.036 1.5 17.5 3.964 17.5 7 L 15.5 7 L 12 7 L 8.5 7 L 6.5 7 Z  M 12 3.5 C 13.932 3.5 15.5 5.068 15.5 7 L 12 7 L 8.5 7 C 8.5 5.068 10.068 3.5 12 3.5 Z " fill-rule="evenodd" fill="rgb(46,46,46)"/></g></svg>