<?xml version="1.0" standalone="no"?><!-- Generator: Gravit.io --><svg xmlns="http://www.w3.org/2000/svg" xmlns:xlink="http://www.w3.org/1999/xlink" style="isolation:isolate" viewBox="0 0 24 24" width="24" height="24"><defs><clipPath id="_clipPath_IVzP3HR6pgP8tz35ygqmZ8adfl7mGGHW"><rect width="24" height="24"/></clipPath></defs><g clip-path="url(#_clipPath_IVzP3HR6pgP8tz35ygqmZ8adfl7mGGHW)"><path d=" M 1 12 C 1 5.929 5.929 1 12 1 C 18.071 1 23 5.929 23 12 C 23 18.071 18.071 23 12 23 C 5.929 23 1 18.071 1 12 Z  M 3 12 C 3 7.033 7.033 3 12 3 C 16.967 3 21 7.033 21 12 C 21 16.967 16.967 21 12 21 C 7.033 21 3 16.967 3 12 Z " fill-rule="evenodd" fill="rgb(46,46,46)"/><path d=" M 17 13 L 7 13 C 6.448 13 6 12.552 6 12 L 6 12 C 6 11.448 6.448 11 7 11 L 17 11 C 17.552 11 18 11.448 18 12 L 18 12 C 18 12.552 17.552 13 17 13 Z " fill="rgb(46,46,46)"/></g></svg>