<?xml version="1.0" standalone="no"?><!-- Generator: Gravit.io --><svg xmlns="http://www.w3.org/2000/svg" xmlns:xlink="http://www.w3.org/1999/xlink" style="isolation:isolate" viewBox="0 0 24 24" width="24" height="24"><defs><clipPath id="_clipPath_ipDQPg5DQiScO9Mwd9SM7sRy5idBhgL0"><rect width="24" height="24"/></clipPath></defs><g clip-path="url(#_clipPath_ipDQPg5DQiScO9Mwd9SM7sRy5idBhgL0)"><path d=" M 2 12 C 2 10.344 3.344 9 5 9 C 6.656 9 8 10.344 8 12 C 8 13.656 6.656 15 5 15 C 3.344 15 2 13.656 2 12 Z  M 4 12 C 4 11.448 4.448 11 5 11 C 5.552 11 6 11.448 6 12 C 6 12.552 5.552 13 5 13 C 4.448 13 4 12.552 4 12 Z " fill-rule="evenodd" fill="rgb(46,46,46)"/><path d=" M 9 12 C 9 10.344 10.344 9 12 9 C 13.656 9 15 10.344 15 12 C 15 13.656 13.656 15 12 15 C 10.344 15 9 13.656 9 12 Z  M 11 12 C 11 11.448 11.448 11 12 11 C 12.552 11 13 11.448 13 12 C 13 12.552 12.552 13 12 13 C 11.448 13 11 12.552 11 12 Z " fill-rule="evenodd" fill="rgb(46,46,46)"/><path d=" M 16 12 C 16 10.344 17.344 9 19 9 C 20.656 9 22 10.344 22 12 C 22 13.656 20.656 15 19 15 C 17.344 15 16 13.656 16 12 Z  M 18 12 C 18 11.448 18.448 11 19 11 C 19.552 11 20 11.448 20 12 C 20 12.552 19.552 13 19 13 C 18.448 13 18 12.552 18 12 Z " fill-rule="evenodd" fill="rgb(46,46,46)"/></g></svg>