<?xml version="1.0" standalone="no"?><!-- Generator: Gravit.io --><svg xmlns="http://www.w3.org/2000/svg" xmlns:xlink="http://www.w3.org/1999/xlink" style="isolation:isolate" viewBox="0 0 24 24" width="24" height="24"><defs><clipPath id="_clipPath_tzbmm5mbVptbPVXJ3FEIRagZ3NSqmjBR"><rect width="24" height="24"/></clipPath></defs><g clip-path="url(#_clipPath_tzbmm5mbVptbPVXJ3FEIRagZ3NSqmjBR)"><g id="Group"><g id="Group"><path d=" M 12 22 C 10.344 22 9 20.656 9 19 C 9 17.344 10.344 16 12 16 C 13.656 16 15 17.344 15 19 C 15 20.656 13.656 22 12 22 Z  M 12 20 C 11.448 20 11 19.552 11 19 C 11 18.448 11.448 18 12 18 C 12.552 18 13 18.448 13 19 C 13 19.552 12.552 20 12 20 Z " fill-rule="evenodd" fill="rgb(46,46,46)"/></g><g id="Group"><path d=" M 12 15 C 10.344 15 9 13.656 9 12 C 9 10.344 10.344 9 12 9 C 13.656 9 15 10.344 15 12 C 15 13.656 13.656 15 12 15 Z  M 12 13 C 11.448 13 11 12.552 11 12 C 11 11.448 11.448 11 12 11 C 12.552 11 13 11.448 13 12 C 13 12.552 12.552 13 12 13 Z " fill-rule="evenodd" fill="rgb(46,46,46)"/></g><g id="Group"><path d=" M 12 8 C 10.344 8 9 6.656 9 5 C 9 3.344 10.344 2 12 2 C 13.656 2 15 3.344 15 5 C 15 6.656 13.656 8 12 8 Z  M 12 6 C 11.448 6 11 5.552 11 5 C 11 4.448 11.448 4 12 4 C 12.552 4 13 4.448 13 5 C 13 5.552 12.552 6 12 6 Z " fill-rule="evenodd" fill="rgb(46,46,46)"/></g></g></g></svg>