<?xml version="1.0" standalone="no"?><!-- Generator: Gravit.io --><svg xmlns="http://www.w3.org/2000/svg" xmlns:xlink="http://www.w3.org/1999/xlink" style="isolation:isolate" viewBox="0 0 24 24" width="24" height="24"><defs><clipPath id="_clipPath_gMGDy2eeAZByk52arlfVFjGxrZ8PvSv2"><rect width="24" height="24"/></clipPath></defs><g clip-path="url(#_clipPath_gMGDy2eeAZByk52arlfVFjGxrZ8PvSv2)"><path d=" M 1 12 C 1 5.929 5.929 1 12 1 C 18.071 1 23 5.929 23 12 C 23 18.071 18.071 23 12 23 C 5.929 23 1 18.071 1 12 Z  M 3 12 C 3 7.033 7.033 3 12 3 C 16.967 3 21 7.033 21 12 C 21 16.967 16.967 21 12 21 C 7.033 21 3 16.967 3 12 Z " fill-rule="evenodd" fill="rgb(46,46,46)"/><path d=" M 12 19 C 10.896 19 10 18.104 10 17 C 10 15.896 10.896 15 12 15 C 13.104 15 14 15.896 14 17 C 14 18.104 13.104 19 12 19 Z  M 12 17.5 C 11.724 17.5 11.5 17.276 11.5 17 C 11.5 16.724 11.724 16.5 12 16.5 C 12.276 16.5 12.5 16.724 12.5 17 C 12.5 17.276 12.276 17.5 12 17.5 Z " fill-rule="evenodd" fill="rgb(46,46,46)"/><path d=" M 12 9 C 10.896 9 10 8.104 10 7 C 10 5.896 10.896 5 12 5 C 13.104 5 14 5.896 14 7 C 14 8.104 13.104 9 12 9 Z  M 12 7.5 C 11.724 7.5 11.5 7.276 11.5 7 C 11.5 6.724 11.724 6.5 12 6.5 C 12.276 6.5 12.5 6.724 12.5 7 C 12.5 7.276 12.276 7.5 12 7.5 Z " fill-rule="evenodd" fill="rgb(46,46,46)"/><path d=" M 12 14 C 10.896 14 10 13.104 10 12 C 10 10.896 10.896 10 12 10 C 13.104 10 14 10.896 14 12 C 14 13.104 13.104 14 12 14 Z  M 12 12.5 C 11.724 12.5 11.5 12.276 11.5 12 C 11.5 11.724 11.724 11.5 12 11.5 C 12.276 11.5 12.5 11.724 12.5 12 C 12.5 12.276 12.276 12.5 12 12.5 Z " fill-rule="evenodd" fill="rgb(46,46,46)"/></g></svg>