<?xml version="1.0" standalone="no"?><!-- Generator: Gravit.io --><svg xmlns="http://www.w3.org/2000/svg" xmlns:xlink="http://www.w3.org/1999/xlink" style="isolation:isolate" viewBox="0 0 24 24" width="24" height="24"><defs><clipPath id="_clipPath_JklT5HnY3HRlrNBbxVLTNfegU8lY9Byo"><rect width="24" height="24"/></clipPath></defs><g clip-path="url(#_clipPath_JklT5HnY3HRlrNBbxVLTNfegU8lY9Byo)"><path d=" M 5.253 19 L 5.252 12 L 5.25 5 C 5.25 4.448 5.6 4.28 6.031 4.624 L 10.25 7.998 L 14.469 11.371 C 14.9 11.716 14.9 12.276 14.469 12.621 L 10.252 15.998 L 6.034 19.375 C 5.603 19.72 5.253 19.552 5.253 19 Z " fill="rgb(0,0,0)"/><path d=" M 17.75 4 L 17.75 4 C 18.302 4 18.75 4.448 18.75 5 L 18.75 19 C 18.75 19.552 18.302 20 17.75 20 L 17.75 20 C 17.198 20 16.75 19.552 16.75 19 L 16.75 5 C 16.75 4.448 17.198 4 17.75 4 Z " fill="rgb(0,0,0)"/></g></svg>