<?xml version="1.0" standalone="no"?><!-- Generator: Gravit.io --><svg xmlns="http://www.w3.org/2000/svg" xmlns:xlink="http://www.w3.org/1999/xlink" style="isolation:isolate" viewBox="0 0 24 24" width="24" height="24"><defs><clipPath id="_clipPath_UJuVKXV4WDww0PTfNV6IozHXiDL1ff7U"><rect width="24" height="24"/></clipPath></defs><g clip-path="url(#_clipPath_UJuVKXV4WDww0PTfNV6IozHXiDL1ff7U)"><path d=" M 11.608 21.745 L 5.96 9.763 C 5.223 8.199 5.48 5.817 6.533 4.446 Q 8.572 1.795 11.962 1.776 Q 15.359 1.757 17.432 4.401 C 18.499 5.761 18.782 8.142 18.064 9.714 L 12.568 21.739 C 12.306 22.311 11.876 22.314 11.608 21.745 Z " fill="rgb(255,255,255)" vector-effect="non-scaling-stroke" stroke-width="2.5" stroke="rgb(46,46,46)" stroke-linejoin="miter" stroke-linecap="square" stroke-miterlimit="3"/><path d=" M 9 8.188 C 9 6.532 10.344 5.188 12 5.188 C 13.656 5.188 15 6.532 15 8.188 C 15 9.843 13.656 11.188 12 11.188 C 10.344 11.188 9 9.843 9 8.188 Z  M 10.5 8.188 C 10.5 7.36 11.172 6.688 12 6.688 C 12.828 6.688 13.5 7.36 13.5 8.188 C 13.5 9.015 12.828 9.688 12 9.688 C 11.172 9.688 10.5 9.015 10.5 8.188 Z " fill-rule="evenodd" fill="rgb(46,46,46)"/></g></svg>