<?xml version="1.0" standalone="no"?><!-- Generator: Gravit.io --><svg xmlns="http://www.w3.org/2000/svg" xmlns:xlink="http://www.w3.org/1999/xlink" style="isolation:isolate" viewBox="0 0 24 24" width="24" height="24"><defs><clipPath id="_clipPath_g5ESFWwIVKCrGlNfQ18LoMkFzYS9mBib"><rect width="24" height="24"/></clipPath></defs><g clip-path="url(#_clipPath_g5ESFWwIVKCrGlNfQ18LoMkFzYS9mBib)"><path d=" M 13 11 L 13 5.413 C 13 4.909 12.591 4.5 12.087 4.5 L 11.913 4.5 C 11.409 4.5 11 4.909 11 5.413 L 11 11 L 5.413 11 C 4.909 11 4.5 11.409 4.5 11.913 L 4.5 12.087 C 4.5 12.591 4.909 13 5.413 13 L 11 13 L 11 18.587 C 11 19.091 11.409 19.5 11.913 19.5 L 12.087 19.5 C 12.591 19.5 13 19.091 13 18.587 L 13 13 L 18.587 13 C 19.091 13 19.5 12.591 19.5 12.087 L 19.5 11.913 C 19.5 11.409 19.091 11 18.587 11 L 13 11 Z " fill="rgb(46,46,46)"/></g></svg>