<?xml version="1.0" standalone="no"?><!-- Generator: Gravit.io --><svg xmlns="http://www.w3.org/2000/svg" xmlns:xlink="http://www.w3.org/1999/xlink" style="isolation:isolate" viewBox="0 0 24 24" width="24" height="24"><defs><clipPath id="_clipPath_TtiTtzAF4BF6EjafVRLmyXDrso0fJkZg"><rect width="24" height="24"/></clipPath></defs><g clip-path="url(#_clipPath_TtiTtzAF4BF6EjafVRLmyXDrso0fJkZg)"><path d=" M 1 12 C 1 5.929 5.929 1 12 1 C 18.071 1 23 5.929 23 12 C 23 18.071 18.071 23 12 23 C 5.929 23 1 18.071 1 12 Z  M 3 12 C 3 7.033 7.033 3 12 3 C 16.967 3 21 7.033 21 12 C 21 16.967 16.967 21 12 21 C 7.033 21 3 16.967 3 12 Z " fill-rule="evenodd" fill="rgb(46,46,46)"/><path d=" M 13 11 L 13 6.816 C 13 6.366 12.634 6 12.184 6 L 11.816 6 C 11.366 6 11 6.366 11 6.816 L 11 11 L 6.816 11 C 6.366 11 6 11.366 6 11.816 L 6 12.184 C 6 12.634 6.366 13 6.816 13 L 11 13 L 11 17.184 C 11 17.634 11.366 18 11.816 18 L 12.184 18 C 12.634 18 13 17.634 13 17.184 L 13 13 L 17.184 13 C 17.634 13 18 12.634 18 12.184 L 18 11.816 C 18 11.366 17.634 11 17.184 11 L 13 11 Z " fill="rgb(46,46,46)"/></g></svg>