<?xml version="1.0" standalone="no"?><!-- Generator: Gravit.io --><svg xmlns="http://www.w3.org/2000/svg" xmlns:xlink="http://www.w3.org/1999/xlink" style="isolation:isolate" viewBox="0 0 24 24" width="24" height="24"><defs><clipPath id="_clipPath_97eDlGMXLgHnfaF16PMjDHKP2BPudV4e"><rect width="24" height="24"/></clipPath></defs><g clip-path="url(#_clipPath_97eDlGMXLgHnfaF16PMjDHKP2BPudV4e)"><path d=" M 9.02 2.9 C 5.438 3.628 2 7.666 2 12.5 L 2 12.5 C 2 18.019 6.481 22.5 12 22.5 C 17.519 22.5 22 18.019 22 12.5 C 22 7.666 18.562 3.628 14.98 2.9 C 14.439 2.79 14 3.148 14 3.7 L 14 3.752 C 14 4.304 14.434 4.864 14.968 5.002 C 17.449 5.641 20 8.775 20 12.5 C 20 16.915 16.415 20.5 12 20.5 C 7.585 20.5 4 16.915 4 12.5 L 4 12.5 C 4 8.775 6.551 5.641 9.032 5.002 C 9.566 4.864 10 4.304 10 3.752 L 10 3.7 C 10 3.148 9.561 2.79 9.02 2.9 Z " fill="rgb(70,70,70)"/><path d=" M 12 1.5 L 12 1.5 C 12.552 1.5 13 2.017 13 2.655 L 13 8.345 C 13 8.983 12.552 9.5 12 9.5 L 12 9.5 C 11.448 9.5 11 8.983 11 8.345 L 11 2.655 C 11 2.017 11.448 1.5 12 1.5 Z " fill="rgb(70,70,70)"/></g></svg>