<?xml version="1.0" standalone="no"?><!-- Generator: Gravit.io --><svg xmlns="http://www.w3.org/2000/svg" xmlns:xlink="http://www.w3.org/1999/xlink" style="isolation:isolate" viewBox="0 0 24 24" width="24" height="24"><defs><clipPath id="_clipPath_OjILVM61urIMOGVzo6BenmshcpobN3QH"><rect width="24" height="24"/></clipPath></defs><g clip-path="url(#_clipPath_OjILVM61urIMOGVzo6BenmshcpobN3QH)"><g id="Group"><path d=" M 6.252 10.184 L 2.95 10.184 C 2.398 10.184 2.24 9.843 2.598 9.422 L 6.852 4.417 C 7.21 3.997 7.79 3.997 8.148 4.417 L 12.402 9.422 C 12.76 9.843 12.602 10.184 12.05 10.184 L 8.75 10.184 L 8.75 18.898 C 8.75 19.45 8.302 19.898 7.75 19.898 L 7.252 19.898 C 6.7 19.898 6.252 19.45 6.252 18.898 L 6.252 10.184 Z " fill="rgb(46,46,46)"/><path d=" M 17.748 13.816 L 21.05 13.816 C 21.602 13.816 21.76 14.157 21.402 14.578 L 17.148 19.583 C 16.79 20.003 16.21 20.003 15.852 19.583 L 11.598 14.578 C 11.24 14.157 11.398 13.816 11.95 13.816 L 15.25 13.816 L 15.25 5.102 C 15.25 4.55 15.698 4.102 16.25 4.102 L 16.748 4.102 C 17.3 4.102 17.748 4.55 17.748 5.102 L 17.748 13.816 Z " fill="rgb(46,46,46)"/></g></g></svg>