<?xml version="1.0" standalone="no"?><!-- Generator: Gravit.io --><svg xmlns="http://www.w3.org/2000/svg" xmlns:xlink="http://www.w3.org/1999/xlink" style="isolation:isolate" viewBox="0 0 24 24" width="24" height="24"><defs><clipPath id="_clipPath_AmyeQeFQRY5aiqjCyflUmCcW5W2BxfgY"><rect width="24" height="24"/></clipPath></defs><g clip-path="url(#_clipPath_AmyeQeFQRY5aiqjCyflUmCcW5W2BxfgY)"><path d=" M 5.837 18.5 L 5.837 6.828 L 6.959 7.95 C 7.349 8.34 7.983 8.34 8.373 7.95 L 8.373 7.95 C 8.763 7.559 8.763 6.926 8.373 6.536 L 6.252 4.414 L 5.545 3.707 C 5.154 3.317 4.521 3.317 4.13 3.707 L 3.423 4.414 L 1.302 6.536 C 0.912 6.926 0.912 7.559 1.302 7.95 L 1.302 7.95 C 1.692 8.34 2.326 8.34 2.716 7.95 L 3.837 6.828 L 3.902 20 C 3.905 20.552 4.355 21 4.907 21 L 5.837 21 L 14.907 21 C 15.459 21 15.907 20.552 15.907 20 L 15.907 20 C 15.907 19.448 15.459 19 14.907 19 L 6.337 19 C 6.062 19 5.837 18.776 5.837 18.5 Z " fill="rgb(46,46,46)"/><path d=" M 18.163 5.5 L 18.163 17.172 L 17.041 16.05 C 16.651 15.66 16.017 15.66 15.627 16.05 L 15.627 16.05 C 15.237 16.441 15.237 17.074 15.627 17.464 L 17.748 19.586 L 18.455 20.293 C 18.846 20.683 19.479 20.683 19.87 20.293 L 20.577 19.586 L 22.698 17.464 C 23.088 17.074 23.088 16.441 22.698 16.05 L 22.698 16.05 C 22.308 15.66 21.674 15.66 21.284 16.05 L 20.163 17.172 L 20.111 4 C 20.109 3.448 19.659 3 19.107 3 L 18.163 3 L 9.107 3 C 8.555 3 8.107 3.448 8.107 4 L 8.107 4 C 8.107 4.552 8.555 5 9.107 5 L 17.663 5 C 17.938 5 18.163 5.224 18.163 5.5 Z " fill="rgb(46,46,46)"/></g></svg>