<?xml version="1.0" standalone="no"?><!-- Generator: Gravit.io --><svg xmlns="http://www.w3.org/2000/svg" xmlns:xlink="http://www.w3.org/1999/xlink" style="isolation:isolate" viewBox="0 0 24 24" width="24" height="24"><defs><clipPath id="_clipPath_Mle3I21RPjM3zVjy7bYHl8Z9gIhNvY2a"><rect width="24" height="24"/></clipPath></defs><g clip-path="url(#_clipPath_Mle3I21RPjM3zVjy7bYHl8Z9gIhNvY2a)"><path d=" M 19.938 11 C 19.445 7.056 16.077 4 12 4 C 7.585 4 4 7.585 4 12 L 4 12 C 4 16.415 7.585 20 12 20 C 16.077 20 19.445 16.944 19.938 13 L 16.9 13 C 16.436 15.281 14.417 17 12 17 C 9.24 17 7 14.76 7 12 L 7 12 C 7 9.24 9.24 7 12 7 C 14.417 7 16.436 8.719 16.9 11 L 19.938 11 Z " fill="rgb(46,46,46)"/><path d=" M 20.188 6.313 L 20.188 10.313 C 20.188 10.864 19.739 11.313 19.188 11.313 L 15.188 11.313 C 14.636 11.313 14.504 10.996 14.895 10.605 L 19.48 6.02 C 19.871 5.629 20.188 5.761 20.188 6.313 Z " fill="rgb(46,46,46)"/></g></svg>