<?xml version="1.0" standalone="no"?><!-- Generator: Gravit.io --><svg xmlns="http://www.w3.org/2000/svg" xmlns:xlink="http://www.w3.org/1999/xlink" style="isolation:isolate" viewBox="0 0 24 24" width="24" height="24"><defs><clipPath id="_clipPath_ptIuhECOjYqT8WJyGOCo6HP7vGsclvl1"><rect width="24" height="24"/></clipPath></defs><g clip-path="url(#_clipPath_ptIuhECOjYqT8WJyGOCo6HP7vGsclvl1)"><path d=" M 19.938 13 C 19.445 16.944 16.077 20 12 20 C 7.923 20 4.555 16.944 4.062 13 L 7.1 13 C 7.564 15.281 9.583 17 12 17 C 14.417 17 16.436 15.281 16.9 13 L 19.938 13 Z  M 4.062 11 C 4.555 7.056 7.923 4 12 4 C 16.077 4 19.445 7.056 19.938 11 L 16.9 11 C 16.436 8.719 14.417 7 12 7 C 9.583 7 7.564 8.719 7.1 11 L 4.062 11 Z " fill-rule="evenodd" fill="rgb(46,46,46)"/><path d=" M 20.25 6.25 L 20.25 10.25 C 20.25 10.802 19.802 11.25 19.25 11.25 L 15.25 11.25 C 14.698 11.25 14.567 10.933 14.957 10.543 L 19.543 5.957 C 19.933 5.567 20.25 5.698 20.25 6.25 Z " fill="rgb(46,46,46)"/><path d=" M 4.625 12.813 L 8.625 12.813 C 9.177 12.813 9.308 13.129 8.918 13.52 L 4.332 18.105 C 3.942 18.496 3.625 18.364 3.625 17.813 L 3.625 13.813 C 3.625 13.261 4.073 12.813 4.625 12.813 Z " fill="rgb(46,46,46)"/></g></svg>