<?xml version="1.0" standalone="no"?><!-- Generator: Gravit.io --><svg xmlns="http://www.w3.org/2000/svg" xmlns:xlink="http://www.w3.org/1999/xlink" style="isolation:isolate" viewBox="0 0 24 24" width="24" height="24"><defs><clipPath id="_clipPath_rVsCvFo9vxu9c0noHhImbSt9n0zQoM39"><rect width="24" height="24"/></clipPath></defs><g clip-path="url(#_clipPath_rVsCvFo9vxu9c0noHhImbSt9n0zQoM39)"><path d=" M 13.769 8.803 L 13.768 5 C 13.768 4.448 13.418 4.28 12.987 4.625 L 8.769 8.002 L 4.552 11.379 C 4.121 11.724 4.121 12.284 4.552 12.629 L 8.771 16.002 L 12.99 19.375 C 13.421 19.72 13.771 19.552 13.771 19 L 13.77 15.202 L 14.771 16.002 L 18.99 19.375 C 19.421 19.72 19.771 19.552 19.771 19 L 19.769 12 L 19.768 5 C 19.768 4.448 19.418 4.28 18.987 4.625 L 14.769 8.002 L 13.769 8.803 Z " fill="rgb(46,46,46)"/></g></svg>