<?xml version="1.0" standalone="no"?><!-- Generator: Gravit.io --><svg xmlns="http://www.w3.org/2000/svg" xmlns:xlink="http://www.w3.org/1999/xlink" style="isolation:isolate" viewBox="0 0 24 24" width="24" height="24"><defs><clipPath id="_clipPath_QiN4Q00OtRQGQl81oljlUHjltuyvEks9"><rect width="24" height="24"/></clipPath></defs><g clip-path="url(#_clipPath_QiN4Q00OtRQGQl81oljlUHjltuyvEks9)"><path d=" M 15.504 11.002 L 11.55 7.049 C 11.16 6.658 11.16 6.025 11.55 5.634 L 11.55 5.634 C 11.941 5.244 12.574 5.244 12.965 5.634 L 18.621 11.291 C 19.012 11.682 19.012 12.315 18.621 12.705 L 17.914 13.413 L 17.912 13.41 L 12.957 18.366 C 12.566 18.756 11.933 18.756 11.543 18.366 L 11.543 18.366 C 11.152 17.975 11.152 17.342 11.543 16.951 L 15.492 13.002 L 6.086 13.002 C 5.534 13.002 5.086 12.554 5.086 12.002 L 5.086 12.002 C 5.086 11.45 5.534 11.002 6.086 11.002 L 15.504 11.002 Z " fill="rgb(46,46,46)"/></g></svg>