<?xml version="1.0" standalone="no"?><!-- Generator: Gravit.io --><svg xmlns="http://www.w3.org/2000/svg" xmlns:xlink="http://www.w3.org/1999/xlink" style="isolation:isolate" viewBox="0 0 24 24" width="24" height="24"><defs><clipPath id="_clipPath_RDPnw5VGkAq3nhR6qHmVN6DBsmnbP4NE"><rect width="24" height="24"/></clipPath></defs><g clip-path="url(#_clipPath_RDPnw5VGkAq3nhR6qHmVN6DBsmnbP4NE)"><path d=" M 13.036 13.414 L 13.743 12.707 C 14.133 12.317 14.133 11.683 13.743 11.293 L 13.036 10.586 L 6.672 4.222 C 6.281 3.832 5.648 3.832 5.257 4.222 L 5.257 4.222 C 4.867 4.612 4.867 5.246 5.257 5.636 L 11.621 12 L 5.257 18.364 C 4.867 18.754 4.867 19.388 5.257 19.778 L 5.257 19.778 C 5.648 20.168 6.281 20.168 6.672 19.778 L 13.036 13.414 Z " fill="rgb(46,46,46)"/><path d=" M 18.036 13.414 L 18.743 12.707 C 19.133 12.317 19.133 11.683 18.743 11.293 L 18.036 10.586 L 11.672 4.222 C 11.281 3.832 10.648 3.832 10.257 4.222 L 10.257 4.222 C 9.867 4.612 9.867 5.246 10.257 5.636 L 16.621 12 L 10.257 18.364 C 9.867 18.754 9.867 19.388 10.257 19.778 L 10.257 19.778 C 10.648 20.168 11.281 20.168 11.672 19.778 L 18.036 13.414 Z " fill="rgb(46,46,46)"/></g></svg>