<?xml version="1.0" standalone="no"?><!-- Generator: Gravit.io --><svg xmlns="http://www.w3.org/2000/svg" xmlns:xlink="http://www.w3.org/1999/xlink" style="isolation:isolate" viewBox="0 0 24 24" width="24" height="24"><defs><clipPath id="_clipPath_GyPAAitk4Fpy0fwgdxGIgCUUMqrULSqz"><rect width="24" height="24"/></clipPath></defs><g clip-path="url(#_clipPath_GyPAAitk4Fpy0fwgdxGIgCUUMqrULSqz)"><path d=" M 1 12 C 1 5.929 5.929 1 12 1 C 18.071 1 23 5.929 23 12 C 23 18.071 18.071 23 12 23 C 5.929 23 1 18.071 1 12 Z  M 3 12 C 3 7.033 7.033 3 12 3 C 16.967 3 21 7.033 21 12 C 21 16.967 16.967 21 12 21 C 7.033 21 3 16.967 3 12 Z " fill-rule="evenodd" fill="rgb(46,46,46)"/><path d=" M 8.995 15.182 L 9.702 15.889 C 10.092 16.279 10.726 16.279 11.116 15.889 L 11.823 15.182 L 17.48 9.525 C 17.87 9.135 17.87 8.501 17.48 8.111 L 17.48 8.111 C 17.09 7.721 16.456 7.721 16.066 8.111 L 10.409 13.768 L 7.934 11.293 C 7.544 10.903 6.91 10.903 6.52 11.293 L 6.52 11.293 C 6.13 11.683 6.13 12.317 6.52 12.707 L 8.995 15.182 Z " fill="rgb(46,46,46)"/></g></svg>