<?xml version="1.0" standalone="no"?><!-- Generator: Gravit.io --><svg xmlns="http://www.w3.org/2000/svg" xmlns:xlink="http://www.w3.org/1999/xlink" style="isolation:isolate" viewBox="0 0 24 24" width="24" height="24"><defs><clipPath id="_clipPath_SUNXuMOHxuBEzLo0dsJVrHMhJPhGbuUW"><rect width="24" height="24"/></clipPath></defs><g clip-path="url(#_clipPath_SUNXuMOHxuBEzLo0dsJVrHMhJPhGbuUW)"><path d=" M 1 12 C 1 5.929 5.929 1 12 1 C 18.071 1 23 5.929 23 12 C 23 18.071 18.071 23 12 23 C 5.929 23 1 18.071 1 12 Z  M 3 12 C 3 7.033 7.033 3 12 3 C 16.967 3 21 7.033 21 12 C 21 16.967 16.967 21 12 21 C 7.033 21 3 16.967 3 12 Z " fill-rule="evenodd" fill="rgb(46,46,46)"/><path d=" M 14.65 11 L 12.111 8.461 C 11.721 8.071 11.721 7.437 12.111 7.047 L 12.111 7.047 C 12.501 6.656 13.135 6.656 13.525 7.047 L 17.072 10.594 L 17.076 10.589 L 17.783 11.297 C 18.174 11.687 18.174 12.321 17.783 12.711 L 13.541 16.953 C 13.151 17.344 12.517 17.344 12.127 16.953 L 12.127 16.953 C 11.736 16.563 11.736 15.929 12.127 15.539 L 14.666 13 L 6.924 13 C 6.372 13 5.924 12.552 5.924 12 L 5.924 12 C 5.924 11.448 6.372 11 6.924 11 L 14.65 11 Z " fill="rgb(46,46,46)"/></g></svg>