<?xml version="1.0" standalone="no"?><!-- Generator: Gravit.io --><svg xmlns="http://www.w3.org/2000/svg" xmlns:xlink="http://www.w3.org/1999/xlink" style="isolation:isolate" viewBox="0 0 24 24" width="24" height="24"><defs><clipPath id="_clipPath_hqOyhUuH6LBDnwR6zWeFx76L7OjY5Du9"><rect width="24" height="24"/></clipPath></defs><g clip-path="url(#_clipPath_hqOyhUuH6LBDnwR6zWeFx76L7OjY5Du9)"><path d=" M 15.566 20.516 L 7.788 12.738 L 5.313 15.212 C 4.142 16.383 3.192 15.989 3.192 14.334 L 3.192 4.692 C 3.192 3.864 3.864 3.192 4.692 3.192 L 14.334 3.192 C 15.989 3.192 16.383 4.142 15.212 5.313 L 12.738 7.788 L 20.516 15.566 C 20.906 15.956 20.906 16.59 20.516 16.98 L 16.98 20.516 C 16.59 20.906 15.956 20.906 15.566 20.516 Z  M 15.92 18.041 L 8.163 10.285 C 7.968 10.09 7.65 10.088 7.453 10.282 L 5.548 12.155 C 5.351 12.348 5.192 12.281 5.192 12.005 L 5.192 5.692 C 5.192 5.416 5.416 5.192 5.692 5.192 L 12.005 5.192 C 12.281 5.192 12.347 5.35 12.152 5.545 L 10.263 7.434 C 10.068 7.629 10.068 7.946 10.263 8.141 L 18.041 15.92 C 18.236 16.115 18.236 16.431 18.041 16.627 L 16.627 18.041 C 16.431 18.236 16.115 18.236 15.92 18.041 Z " fill-rule="evenodd" fill="rgb(46,46,46)"/></g></svg>