<?xml version="1.0" standalone="no"?><!-- Generator: Gravit.io --><svg xmlns="http://www.w3.org/2000/svg" xmlns:xlink="http://www.w3.org/1999/xlink" style="isolation:isolate" viewBox="0 0 24 24" width="24" height="24"><defs><clipPath id="_clipPath_XJeVdj2yTDTNnl3rPWJdgAXuXVHLH5pX"><rect width="24" height="24"/></clipPath></defs><g clip-path="url(#_clipPath_XJeVdj2yTDTNnl3rPWJdgAXuXVHLH5pX)"><path d=" M 3.484 15.566 L 11.262 7.788 L 8.788 5.313 C 7.617 4.142 8.011 3.192 9.666 3.192 L 19.308 3.192 C 20.136 3.192 20.808 3.864 20.808 4.692 L 20.808 14.334 C 20.808 15.989 19.858 16.383 18.687 15.212 L 16.212 12.738 L 8.434 20.516 C 8.044 20.906 7.41 20.906 7.02 20.516 L 3.484 16.98 C 3.094 16.59 3.094 15.956 3.484 15.566 Z  M 5.959 15.92 L 13.715 8.163 C 13.91 7.968 13.912 7.65 13.718 7.453 L 11.845 5.548 C 11.652 5.351 11.719 5.192 11.995 5.192 L 18.308 5.192 C 18.584 5.192 18.808 5.416 18.808 5.692 L 18.808 12.005 C 18.808 12.281 18.65 12.347 18.455 12.152 L 16.566 10.263 C 16.371 10.068 16.054 10.068 15.859 10.263 L 8.08 18.041 C 7.885 18.236 7.569 18.236 7.373 18.041 L 5.959 16.627 C 5.764 16.431 5.764 16.115 5.959 15.92 Z " fill-rule="evenodd" fill="rgb(46,46,46)"/></g></svg>