<?xml version="1.0" standalone="no"?><!-- Generator: Gravit.io --><svg xmlns="http://www.w3.org/2000/svg" xmlns:xlink="http://www.w3.org/1999/xlink" style="isolation:isolate" viewBox="0 0 24 24" width="24" height="24"><defs><clipPath id="_clipPath_QCTOWnxNeKii8BtiVaF7PNqAAFBL8MJZ"><rect width="24" height="24"/></clipPath></defs><g clip-path="url(#_clipPath_QCTOWnxNeKii8BtiVaF7PNqAAFBL8MJZ)"><path d=" M 8.434 3.484 L 16.212 11.262 L 18.687 8.788 C 19.858 7.617 20.808 8.011 20.808 9.666 L 20.808 19.308 C 20.808 20.136 20.136 20.808 19.308 20.808 L 9.666 20.808 C 8.011 20.808 7.617 19.858 8.788 18.687 L 11.262 16.212 L 3.484 8.434 C 3.094 8.044 3.094 7.41 3.484 7.02 L 7.02 3.484 C 7.41 3.094 8.044 3.094 8.434 3.484 Z  M 8.08 5.959 L 15.837 13.715 C 16.032 13.91 16.35 13.912 16.547 13.718 L 18.452 11.845 C 18.649 11.652 18.808 11.719 18.808 11.995 L 18.808 18.308 C 18.808 18.584 18.584 18.808 18.308 18.808 L 11.995 18.808 C 11.719 18.808 11.653 18.65 11.848 18.455 L 13.737 16.566 C 13.932 16.371 13.932 16.054 13.737 15.859 L 5.959 8.08 C 5.764 7.885 5.764 7.569 5.959 7.373 L 7.373 5.959 C 7.569 5.764 7.885 5.764 8.08 5.959 Z " fill-rule="evenodd" fill="rgb(46,46,46)"/></g></svg>