<?xml version="1.0" standalone="no"?><!-- Generator: Gravit.io --><svg xmlns="http://www.w3.org/2000/svg" xmlns:xlink="http://www.w3.org/1999/xlink" style="isolation:isolate" viewBox="0 0 24 24" width="24" height="24"><defs><clipPath id="_clipPath_XjNI9JiRDC3fvWtBBSx8BFIH6PqkbQNe"><rect width="24" height="24"/></clipPath></defs><g clip-path="url(#_clipPath_XjNI9JiRDC3fvWtBBSx8BFIH6PqkbQNe)"><path d=" M 20.516 8.434 L 12.738 16.212 L 15.212 18.687 C 16.383 19.858 15.989 20.808 14.334 20.808 L 4.692 20.808 C 3.864 20.808 3.192 20.136 3.192 19.308 L 3.192 9.666 C 3.192 8.011 4.142 7.617 5.313 8.788 L 7.788 11.262 L 15.566 3.484 C 15.956 3.094 16.59 3.094 16.98 3.484 L 20.516 7.02 C 20.906 7.41 20.906 8.044 20.516 8.434 Z  M 18.041 8.08 L 10.285 15.837 C 10.09 16.032 10.088 16.35 10.282 16.547 L 12.155 18.452 C 12.348 18.649 12.281 18.808 12.005 18.808 L 5.692 18.808 C 5.416 18.808 5.192 18.584 5.192 18.308 L 5.192 11.995 C 5.192 11.719 5.35 11.653 5.545 11.848 L 7.434 13.737 C 7.629 13.932 7.946 13.932 8.141 13.737 L 15.92 5.959 C 16.115 5.764 16.431 5.764 16.627 5.959 L 18.041 7.373 C 18.236 7.569 18.236 7.885 18.041 8.08 Z " fill-rule="evenodd" fill="rgb(46,46,46)"/></g></svg>