<?xml version="1.0" standalone="no"?><!-- Generator: Gravit.io --><svg xmlns="http://www.w3.org/2000/svg" xmlns:xlink="http://www.w3.org/1999/xlink" style="isolation:isolate" viewBox="0 0 24 24" width="24" height="24"><defs><clipPath id="_clipPath_otIwq6nijDZX1GqxzEX7eK0QvRNSyOiY"><rect width="24" height="24"/></clipPath></defs><g clip-path="url(#_clipPath_otIwq6nijDZX1GqxzEX7eK0QvRNSyOiY)"><path d=" M 1 12 C 1 5.929 5.929 1 12 1 C 18.071 1 23 5.929 23 12 C 23 18.071 18.071 23 12 23 C 5.929 23 1 18.071 1 12 Z  M 3 12 C 3 7.033 7.033 3 12 3 C 16.967 3 21 7.033 21 12 C 21 16.967 16.967 21 12 21 C 7.033 21 3 16.967 3 12 Z " fill-rule="evenodd" fill="rgb(46,46,46)"/><path d=" M 9 7.125 L 15 7.125 C 15.552 7.125 16 7.573 16 8.125 L 16 8.125 C 16 8.677 15.552 9.125 15 9.125 L 9 9.125 C 8.448 9.125 8 8.677 8 8.125 L 8 8.125 C 8 7.573 8.448 7.125 9 7.125 Z " fill="rgb(46,46,46)"/><path d=" M 9 10.875 L 15 10.875 C 15.552 10.875 16 11.323 16 11.875 L 16 11.875 C 16 12.427 15.552 12.875 15 12.875 L 9 12.875 C 8.448 12.875 8 12.427 8 11.875 L 8 11.875 C 8 11.323 8.448 10.875 9 10.875 Z " fill="rgb(46,46,46)"/><path d=" M 9 14.875 L 15 14.875 C 15.552 14.875 16 15.323 16 15.875 L 16 15.875 C 16 16.427 15.552 16.875 15 16.875 L 9 16.875 C 8.448 16.875 8 16.427 8 15.875 L 8 15.875 C 8 15.323 8.448 14.875 9 14.875 Z " fill="rgb(46,46,46)"/></g></svg>