<?xml version="1.0" standalone="no"?><!-- Generator: Gravit.io --><svg xmlns="http://www.w3.org/2000/svg" xmlns:xlink="http://www.w3.org/1999/xlink" style="isolation:isolate" viewBox="0 0 24 24" width="24" height="24"><defs><clipPath id="_clipPath_HWBhYhEpk1bhKcH06BNoyjz5mI4vXQO6"><rect width="24" height="24"/></clipPath></defs><g clip-path="url(#_clipPath_HWBhYhEpk1bhKcH06BNoyjz5mI4vXQO6)"><path d=" M 5.366 6.5 L 18.634 6.5 C 19.112 6.5 19.5 6.888 19.5 7.366 L 19.5 7.634 C 19.5 8.112 19.112 8.5 18.634 8.5 L 5.366 8.5 C 4.888 8.5 4.5 8.112 4.5 7.634 L 4.5 7.366 C 4.5 6.888 4.888 6.5 5.366 6.5 Z " fill="rgb(46,46,46)"/><path d=" M 5.366 11 L 18.634 11 C 19.112 11 19.5 11.388 19.5 11.866 L 19.5 12.134 C 19.5 12.612 19.112 13 18.634 13 L 5.366 13 C 4.888 13 4.5 12.612 4.5 12.134 L 4.5 11.866 C 4.5 11.388 4.888 11 5.366 11 Z " fill="rgb(46,46,46)"/><path d=" M 5.366 15.5 L 18.634 15.5 C 19.112 15.5 19.5 15.888 19.5 16.366 L 19.5 16.634 C 19.5 17.112 19.112 17.5 18.634 17.5 L 5.366 17.5 C 4.888 17.5 4.5 17.112 4.5 16.634 L 4.5 16.366 C 4.5 15.888 4.888 15.5 5.366 15.5 Z " fill="rgb(46,46,46)"/></g></svg>