<?xml version="1.0" standalone="no"?><!-- Generator: Gravit.io --><svg xmlns="http://www.w3.org/2000/svg" xmlns:xlink="http://www.w3.org/1999/xlink" style="isolation:isolate" viewBox="0 0 24 24" width="24" height="24"><defs><clipPath id="_clipPath_hBnyFLbsqd33DORvV0G5MjbWaZmBc0K3"><rect width="24" height="24"/></clipPath></defs><g clip-path="url(#_clipPath_hBnyFLbsqd33DORvV0G5MjbWaZmBc0K3)"><path d=" M 15.183 16.416 L 14.486 17.113 L 19.436 22.063 L 22.264 19.234 L 17.314 14.285 L 16.597 15.002 L 15.54 13.945 L 15.54 13.945 C 16.458 12.701 17 11.163 17 9.5 C 17 5.361 13.639 2 9.5 2 C 5.361 2 2 5.361 2 9.5 C 2 13.639 5.361 17 9.5 17 C 11.256 17 12.871 16.395 14.15 15.383 L 15.183 16.416 Z  M 4 9.5 C 4 12.536 6.464 15 9.5 15 C 12.536 15 15 12.536 15 9.5 C 15 6.464 12.536 4 9.5 4 C 6.464 4 4 6.464 4 9.5 L 4 9.5 Z " fill-rule="evenodd" fill="rgb(46,46,46)"/></g></svg>