<?xml version="1.0" standalone="no"?><!-- Generator: Gravit.io --><svg xmlns="http://www.w3.org/2000/svg" xmlns:xlink="http://www.w3.org/1999/xlink" style="isolation:isolate" viewBox="0 0 24 24" width="24" height="24"><defs><clipPath id="_clipPath_lInTADAdI3FBIS7wxwE4wJ8spDAENoop"><rect width="24" height="24"/></clipPath></defs><g clip-path="url(#_clipPath_lInTADAdI3FBIS7wxwE4wJ8spDAENoop)"><path d=" M 16.597 15.002 L 16.607 14.992 C 16.997 14.601 17.631 14.601 18.021 14.992 L 21.557 18.527 C 21.947 18.918 21.947 19.551 21.557 19.941 L 20.143 21.356 C 19.753 21.746 19.119 21.746 18.729 21.356 L 15.193 17.82 C 14.806 17.433 14.803 16.807 15.183 16.416 L 14.15 15.383 C 12.871 16.395 11.256 17 9.5 17 C 5.361 17 2 13.639 2 9.5 C 2 5.361 5.361 2 9.5 2 C 13.639 2 17 5.361 17 9.5 C 17 11.163 16.458 12.701 15.54 13.945 L 15.54 13.945 L 16.597 15.002 Z  M 4 9.5 C 4 6.464 6.464 4 9.5 4 C 12.536 4 15 6.464 15 9.5 C 15 12.536 12.536 15 9.5 15 C 6.464 15 4 12.536 4 9.5 L 4 9.5 Z " fill-rule="evenodd" fill="rgb(46,46,46)"/></g></svg>