<?xml version="1.0" standalone="no"?><!-- Generator: Gravit.io --><svg xmlns="http://www.w3.org/2000/svg" xmlns:xlink="http://www.w3.org/1999/xlink" style="isolation:isolate" viewBox="0 0 24 24" width="24" height="24"><defs><clipPath id="_clipPath_M0GPlDnn5gKsfLe6rNS3y7W9BMd9Qi36"><rect width="24" height="24"/></clipPath></defs><g clip-path="url(#_clipPath_M0GPlDnn5gKsfLe6rNS3y7W9BMd9Qi36)"><path d=" M 17.832 14.434 C 18.576 13.125 19 11.612 19 10 C 19 5.033 14.967 1 10 1 C 5.033 1 1 5.033 1 10 L 1 10 C 1 14.967 5.033 19 10 19 C 11.725 19 13.336 18.514 14.706 17.671 L 19.275 22.24 C 19.665 22.631 20.299 22.631 20.689 22.24 L 22.457 20.473 C 22.847 20.082 22.847 19.449 22.457 19.059 L 17.832 14.434 Z  M 3 10 C 3 13.863 6.137 17 10 17 C 13.863 17 17 13.863 17 10 C 17 6.137 13.863 3 10 3 C 6.137 3 3 6.137 3 10 L 3 10 Z " fill-rule="evenodd" fill="rgb(46,46,46)"/></g></svg>