<?xml version="1.0" standalone="no"?><!-- Generator: Gravit.io --><svg xmlns="http://www.w3.org/2000/svg" xmlns:xlink="http://www.w3.org/1999/xlink" style="isolation:isolate" viewBox="0 0 24 24" width="24" height="24"><defs><clipPath id="_clipPath_nSnqHXQ0HzgWl5Y9KQ7OP1f6PBtjpYhy"><rect width="24" height="24"/></clipPath></defs><g clip-path="url(#_clipPath_nSnqHXQ0HzgWl5Y9KQ7OP1f6PBtjpYhy)"><path d=" M 5 12 C 5 8.137 8.137 5 12 5 C 15.863 5 19 8.137 19 12 C 19 15.863 15.863 19 12 19 C 8.137 19 5 15.863 5 12 Z  M 9 12 C 9 10.344 10.344 9 12 9 C 13.656 9 15 10.344 15 12 C 15 13.656 13.656 15 12 15 C 10.344 15 9 13.656 9 12 Z " fill-rule="evenodd" fill="rgb(46,46,46)"/><path d=" M 9 3 L 15 3 L 15 7 L 9 7 L 9 3 Z " fill="rgb(46,46,46)"/><path d=" M 9 17 L 15 17 L 15 21 L 9 21 L 9 17 Z " fill="rgb(46,46,46)"/><path d=" M 21.294 13.902 L 18.294 19.098 L 14.83 17.098 L 17.83 11.902 L 21.294 13.902 Z " fill="rgb(46,46,46)"/><path d=" M 9.17 6.902 L 6.17 12.098 L 2.706 10.098 L 5.706 4.902 L 9.17 6.902 Z " fill="rgb(46,46,46)"/><path d=" M 5.706 19.098 L 2.706 13.902 L 6.17 11.902 L 9.17 17.098 L 5.706 19.098 Z " fill="rgb(46,46,46)"/><path d=" M 17.83 12.098 L 14.83 6.902 L 18.294 4.902 L 21.294 10.098 L 17.83 12.098 Z " fill="rgb(46,46,46)"/></g></svg>