<?xml version="1.0" standalone="no"?><!-- Generator: Gravit.io --><svg xmlns="http://www.w3.org/2000/svg" xmlns:xlink="http://www.w3.org/1999/xlink" style="isolation:isolate" viewBox="0 0 24 24" width="24" height="24"><defs><clipPath id="_clipPath_zFxJpXPdgr0BFTK76qaAqw8xHHgeIVZP"><rect width="24" height="24"/></clipPath></defs><g clip-path="url(#_clipPath_zFxJpXPdgr0BFTK76qaAqw8xHHgeIVZP)"><path d=" M 5 12 C 5 8.137 8.137 5 12 5 C 15.863 5 19 8.137 19 12 C 19 15.863 15.863 19 12 19 C 8.137 19 5 15.863 5 12 Z  M 8 12 C 8 9.792 9.792 8 12 8 C 14.208 8 16 9.792 16 12 C 16 14.208 14.208 16 12 16 C 9.792 16 8 14.208 8 12 Z " fill-rule="evenodd" fill="rgb(46,46,46)"/><path d=" M 10.017 1.9 C 10.109 1.885 10.203 1.875 10.299 1.875 L 13.701 1.875 C 13.797 1.875 13.891 1.885 13.983 1.9 C 13.679 2.313 13.5 2.823 13.5 3.375 C 13.5 4.399 14.117 5.281 15 5.667 L 15 5.875 L 9 5.875 L 9 5.667 C 9.883 5.281 10.5 4.399 10.5 3.375 C 10.5 2.823 10.321 2.313 10.017 1.9 Z " fill="rgb(46,46,46)"/><path d=" M 14.017 22.046 C 13.926 22.062 13.832 22.073 13.736 22.074 L 10.334 22.104 C 10.238 22.105 10.144 22.096 10.052 22.081 C 10.352 21.667 10.526 21.155 10.521 20.603 C 10.512 19.578 9.887 18.703 9.001 18.324 L 8.999 18.116 L 14.999 18.063 L 15.001 18.271 C 14.122 18.665 13.512 19.552 13.521 20.576 C 13.526 21.128 13.71 21.637 14.017 22.046 Z " fill="rgb(46,46,46)"/><path d=" M 21.729 15.317 C 21.696 15.404 21.658 15.491 21.61 15.574 L 19.909 18.52 C 19.861 18.603 19.805 18.679 19.746 18.751 C 19.541 18.283 19.189 17.872 18.711 17.596 C 17.823 17.084 16.752 17.178 15.976 17.749 L 15.795 17.645 L 18.795 12.449 L 18.976 12.553 C 18.869 13.511 19.323 14.486 20.211 14.998 C 20.689 15.274 21.22 15.374 21.729 15.317 Z " fill="rgb(46,46,46)"/><path d=" M 2.282 8.709 C 2.315 8.621 2.352 8.534 2.399 8.451 L 4.074 5.489 C 4.121 5.406 4.176 5.329 4.234 5.257 C 4.444 5.724 4.8 6.131 5.28 6.403 C 6.172 6.907 7.243 6.803 8.013 6.225 L 8.195 6.328 L 5.241 11.55 L 5.06 11.448 C 5.158 10.49 4.695 9.518 3.804 9.014 C 3.323 8.742 2.79 8.647 2.282 8.709 Z " fill="rgb(46,46,46)"/><path d=" M 4.254 18.751 C 4.195 18.679 4.139 18.603 4.091 18.52 L 2.39 15.574 C 2.342 15.491 2.304 15.404 2.271 15.317 C 2.78 15.374 3.311 15.274 3.789 14.998 C 4.677 14.486 5.131 13.511 5.024 12.553 L 5.205 12.449 L 8.205 17.645 L 8.024 17.749 C 7.248 17.178 6.177 17.084 5.289 17.596 C 4.811 17.872 4.459 18.283 4.254 18.751 Z " fill="rgb(46,46,46)"/><path d=" M 19.7 5.215 C 19.76 5.286 19.817 5.362 19.865 5.444 L 21.593 8.375 C 21.641 8.458 21.68 8.544 21.714 8.631 C 21.205 8.579 20.674 8.683 20.198 8.964 C 19.316 9.484 18.87 10.463 18.985 11.419 L 18.806 11.525 L 15.76 6.356 L 15.939 6.25 C 16.72 6.815 17.793 6.899 18.675 6.379 C 19.151 6.099 19.499 5.685 19.7 5.215 Z " fill="rgb(46,46,46)"/></g></svg>