<?xml version="1.0" standalone="no"?><!-- Generator: Gravit.io --><svg xmlns="http://www.w3.org/2000/svg" xmlns:xlink="http://www.w3.org/1999/xlink" style="isolation:isolate" viewBox="0 0 24 24" width="24" height="24"><defs><clipPath id="_clipPath_MeIHsZl5KJQERJr2Rrpzlhi8Zd3kCJnf"><rect width="24" height="24"/></clipPath></defs><g clip-path="url(#_clipPath_MeIHsZl5KJQERJr2Rrpzlhi8Zd3kCJnf)"><path d=" M 10.791 3.016 C 10.867 3.006 10.945 3 11.024 3 L 12.973 3 C 13.06 3 13.145 3.007 13.229 3.018 C 13.104 3.233 13.045 3.485 13.045 3.75 C 13.045 4.615 13.674 5.334 14.498 5.475 L 14.498 6 L 9.498 6 L 9.498 5.479 C 10.335 5.347 10.975 4.623 10.975 3.75 C 10.975 3.484 10.916 3.232 10.791 3.016 Z " fill="rgb(235,235,235)"/><path d=" M 13.19 20.991 C 13.113 21.001 13.036 21.006 12.957 21.006 L 11.008 20.994 C 10.921 20.994 10.836 20.986 10.752 20.975 C 10.878 20.76 10.938 20.509 10.94 20.244 C 10.945 19.379 10.321 18.656 9.497 18.51 L 9.5 17.985 L 14.5 18.015 L 14.497 18.536 C 13.66 18.663 13.015 19.383 13.01 20.256 C 13.009 20.522 13.066 20.774 13.19 20.991 Z " fill="rgb(235,235,235)"/><path d=" M 20.382 15.454 C 20.352 15.525 20.318 15.596 20.279 15.664 L 19.304 17.352 C 19.261 17.427 19.212 17.497 19.161 17.565 C 19.037 17.349 18.848 17.172 18.619 17.04 C 17.87 16.607 16.933 16.792 16.398 17.436 L 15.944 17.173 L 18.444 12.843 L 18.895 13.104 C 18.591 13.893 18.898 14.81 19.654 15.247 C 19.884 15.38 20.132 15.454 20.382 15.454 Z " fill="rgb(46,46,46)"/><path d=" M 3.615 8.544 C 3.645 8.473 3.679 8.403 3.719 8.335 L 4.703 6.653 C 4.747 6.578 4.796 6.508 4.848 6.441 C 4.971 6.657 5.158 6.835 5.387 6.969 C 6.134 7.406 7.072 7.227 7.61 6.586 L 8.063 6.852 L 5.538 11.167 L 5.088 10.904 C 5.397 10.116 5.095 9.197 4.342 8.756 C 4.112 8.622 3.865 8.546 3.615 8.544 Z " fill="rgb(46,46,46)"/><path d=" M 4.821 17.536 C 4.774 17.474 4.73 17.41 4.691 17.342 L 3.716 15.654 C 3.673 15.579 3.636 15.501 3.603 15.423 C 3.852 15.423 4.1 15.349 4.329 15.216 C 5.078 14.784 5.387 13.88 5.097 13.095 L 5.551 12.833 L 8.051 17.163 L 7.6 17.423 C 7.068 16.765 6.12 16.573 5.365 17.009 C 5.134 17.142 4.946 17.319 4.821 17.536 Z " fill="rgb(46,46,46)"/><path d=" M 19.188 6.47 C 19.235 6.532 19.278 6.596 19.318 6.665 L 20.282 8.358 C 20.325 8.434 20.361 8.511 20.393 8.59 C 20.145 8.588 19.897 8.661 19.666 8.793 C 18.915 9.22 18.601 10.122 18.886 10.909 L 18.43 11.169 L 15.956 6.824 L 16.409 6.566 C 16.937 7.228 17.883 7.425 18.642 6.994 C 18.873 6.862 19.062 6.686 19.188 6.47 Z " fill="rgb(46,46,46)"/><path d=" M 10.791 3.016 C 10.867 3.006 10.945 3 11.024 3 L 12.973 3 C 13.06 3 13.145 3.007 13.229 3.018 C 13.104 3.233 13.045 3.485 13.045 3.75 C 13.045 4.615 13.674 5.334 14.498 5.475 L 14.498 6 L 9.498 6 L 9.498 5.479 C 10.335 5.347 10.975 4.623 10.975 3.75 C 10.975 3.484 10.916 3.232 10.791 3.016 Z " fill="rgb(46,46,46)"/><path d=" M 4.998 12 C 4.998 8.137 8.135 5 11.998 5 C 15.862 5 18.998 8.137 18.998 12 C 18.998 15.863 15.862 19 11.998 19 C 8.135 19 4.998 15.863 4.998 12 Z  M 8.998 12 C 8.998 10.344 10.343 9 11.998 9 C 13.654 9 14.998 10.344 14.998 12 C 14.998 13.656 13.654 15 11.998 15 C 10.343 15 8.998 13.656 8.998 12 Z " fill-rule="evenodd" fill="rgb(46,46,46)"/><path d=" M 13.19 20.991 C 13.113 21.001 13.036 21.006 12.957 21.006 L 11.008 20.994 C 10.921 20.994 10.836 20.986 10.752 20.975 C 10.878 20.76 10.938 20.509 10.94 20.244 C 10.945 19.379 10.321 18.656 9.497 18.51 L 9.5 17.985 L 14.5 18.015 L 14.497 18.536 C 13.66 18.663 13.015 19.383 13.01 20.256 C 13.009 20.522 13.066 20.774 13.19 20.991 Z " fill="rgb(46,46,46)"/></g></svg>