<?xml version="1.0" standalone="no"?><!-- Generator: Gravit.io --><svg xmlns="http://www.w3.org/2000/svg" xmlns:xlink="http://www.w3.org/1999/xlink" style="isolation:isolate" viewBox="0 0 24 24" width="24" height="24"><defs><clipPath id="_clipPath_qcDkMZWxKchFoLGQZU0amIqtc2IGYLA5"><rect width="24" height="24"/></clipPath></defs><g clip-path="url(#_clipPath_qcDkMZWxKchFoLGQZU0amIqtc2IGYLA5)"><path d=" M 5 12 C 5 8.137 8.137 5 12 5 C 15.863 5 19 8.137 19 12 C 19 15.863 15.863 19 12 19 C 8.137 19 5 15.863 5 12 Z  M 7 12 C 7 9.24 9.24 7 12 7 C 14.76 7 17 9.24 17 12 C 17 14.76 14.76 17 12 17 C 9.24 17 7 14.76 7 12 Z " fill-rule="evenodd" fill="rgb(46,46,46)"/><path d=" M 10.017 2.9 C 10.109 2.885 10.203 2.875 10.299 2.875 L 13.701 2.875 C 13.797 2.875 13.891 2.885 13.983 2.9 C 13.679 3.313 13.5 3.823 13.5 4.375 C 13.5 5.399 14.117 6.281 15 6.667 L 15 6.875 L 9 6.875 L 9 6.667 C 9.883 6.281 10.5 5.399 10.5 4.375 C 10.5 3.823 10.321 3.313 10.017 2.9 Z " fill="rgb(46,46,46)"/><path d=" M 14.017 21.046 C 13.926 21.062 13.832 21.073 13.736 21.074 L 10.334 21.104 C 10.238 21.105 10.144 21.096 10.052 21.081 C 10.352 20.667 10.526 20.155 10.521 19.603 C 10.512 18.578 9.887 17.703 9.001 17.324 L 8.999 17.116 L 14.999 17.063 L 15.001 17.271 C 14.122 17.665 13.512 18.552 13.521 19.576 C 13.526 20.128 13.71 20.637 14.017 21.046 Z " fill="rgb(46,46,46)"/><path d=" M 20.863 14.817 C 20.83 14.904 20.792 14.991 20.744 15.074 L 19.043 18.02 C 18.995 18.103 18.939 18.179 18.88 18.251 C 18.675 17.783 18.323 17.372 17.845 17.096 C 16.957 16.584 15.886 16.678 15.11 17.249 L 14.929 17.145 L 17.929 11.949 L 18.11 12.053 C 18.003 13.011 18.457 13.986 19.345 14.498 C 19.823 14.774 20.354 14.874 20.863 14.817 Z " fill="rgb(46,46,46)"/><path d=" M 3.148 9.209 C 3.181 9.121 3.218 9.034 3.265 8.951 L 4.94 5.989 C 4.987 5.906 5.042 5.829 5.1 5.757 C 5.31 6.224 5.666 6.631 6.146 6.903 C 7.038 7.407 8.109 7.303 8.879 6.725 L 9.061 6.828 L 6.107 12.05 L 5.926 11.948 C 6.024 10.99 5.561 10.018 4.67 9.514 C 4.189 9.242 3.656 9.147 3.148 9.209 Z " fill="rgb(46,46,46)"/><path d=" M 5.12 18.251 C 5.061 18.179 5.005 18.103 4.957 18.02 L 3.256 15.074 C 3.208 14.991 3.17 14.904 3.137 14.817 C 3.646 14.874 4.177 14.774 4.655 14.498 C 5.543 13.986 5.997 13.011 5.89 12.053 L 6.071 11.949 L 9.071 17.145 L 8.89 17.249 C 8.114 16.678 7.043 16.584 6.155 17.096 C 5.677 17.372 5.325 17.783 5.12 18.251 Z " fill="rgb(46,46,46)"/><path d=" M 18.834 5.715 C 18.894 5.786 18.95 5.862 18.999 5.944 L 20.727 8.875 C 20.775 8.958 20.814 9.044 20.848 9.131 C 20.339 9.079 19.808 9.183 19.332 9.464 C 18.45 9.984 18.004 10.963 18.119 11.919 L 17.94 12.025 L 14.894 6.856 L 15.073 6.75 C 15.854 7.315 16.927 7.399 17.809 6.879 C 18.285 6.599 18.633 6.185 18.834 5.715 Z " fill="rgb(46,46,46)"/></g></svg>