<?xml version="1.0" standalone="no"?><!-- Generator: Gravit.io --><svg xmlns="http://www.w3.org/2000/svg" xmlns:xlink="http://www.w3.org/1999/xlink" style="isolation:isolate" viewBox="0 0 24 24" width="24" height="24"><defs><clipPath id="_clipPath_9oJtLVXJfrWU3Otqm4HKNvYXrGWd1TZ8"><rect width="24" height="24"/></clipPath></defs><g clip-path="url(#_clipPath_9oJtLVXJfrWU3Otqm4HKNvYXrGWd1TZ8)"><path d=" M 1 12 C 1 5.929 5.929 1 12 1 C 18.071 1 23 5.929 23 12 C 23 18.071 18.071 23 12 23 C 5.929 23 1 18.071 1 12 Z  M 3 12 C 3 7.033 7.033 3 12 3 C 16.967 3 21 7.033 21 12 C 21 16.967 16.967 21 12 21 C 7.033 21 3 16.967 3 12 Z " fill-rule="evenodd" fill="rgb(46,46,46)"/><g id="Group"><path d=" M 11 16.5 C 11 17.88 9.88 19 8.5 19 C 7.12 19 6 17.88 6 16.5 C 6 15.12 7.12 14 8.5 14 C 9.88 14 11 15.12 11 16.5 Z  M 9.333 16.5 C 9.333 16.96 8.96 17.333 8.5 17.333 C 8.04 17.333 7.667 16.96 7.667 16.5 C 7.667 16.04 8.04 15.667 8.5 15.667 C 8.96 15.667 9.333 16.04 9.333 16.5 Z " fill-rule="evenodd" fill="rgb(46,46,46)"/><path d=" M 11 7.5 C 11 8.88 9.88 10 8.5 10 C 7.12 10 6 8.88 6 7.5 C 6 6.12 7.12 5 8.5 5 C 9.88 5 11 6.12 11 7.5 Z  M 9.333 7.5 C 9.333 7.96 8.96 8.333 8.5 8.333 C 8.04 8.333 7.667 7.96 7.667 7.5 C 7.667 7.04 8.04 6.667 8.5 6.667 C 8.96 6.667 9.333 7.04 9.333 7.5 Z " fill-rule="evenodd" fill="rgb(46,46,46)"/><path d=" M 19.5 11.5 C 19.5 12.88 18.38 14 17 14 C 15.62 14 14.5 12.88 14.5 11.5 C 14.5 10.12 15.62 9 17 9 C 18.38 9 19.5 10.12 19.5 11.5 Z  M 17.833 11.5 C 17.833 11.96 17.46 12.333 17 12.333 C 16.54 12.333 16.167 11.96 16.167 11.5 C 16.167 11.04 16.54 10.667 17 10.667 C 17.46 10.667 17.833 11.04 17.833 11.5 Z " fill-rule="evenodd" fill="rgb(46,46,46)"/><rect x="9.402" y="13.17" width="6.607" height="2" transform="matrix(-0.883,0.469,-0.469,-0.883,30.576,20.717)" fill="rgb(46,46,46)"/><rect x="9.814" y="8.485" width="6.331" height="2" transform="matrix(-0.883,-0.469,0.469,-0.883,19.986,23.953)" fill="rgb(46,46,46)"/></g></g></svg>