<?xml version="1.0" standalone="no"?><!-- Generator: Gravit.io --><svg xmlns="http://www.w3.org/2000/svg" xmlns:xlink="http://www.w3.org/1999/xlink" style="isolation:isolate" viewBox="0 0 24 24" width="24" height="24"><defs><clipPath id="_clipPath_S3Fs3khoo0Q193QOyLuzU3CtNsh4z5hb"><rect width="24" height="24"/></clipPath></defs><g clip-path="url(#_clipPath_S3Fs3khoo0Q193QOyLuzU3CtNsh4z5hb)"><path d=" M 9 5 C 9 7.208 7.208 9 5 9 C 2.792 9 1 7.208 1 5 C 1 2.792 2.792 1 5 1 C 7.208 1 9 2.792 9 5 Z  M 6.333 5 C 6.333 5.736 5.736 6.333 5 6.333 C 4.264 6.333 3.667 5.736 3.667 5 C 3.667 4.264 4.264 3.667 5 3.667 C 5.736 3.667 6.333 4.264 6.333 5 Z " fill-rule="evenodd" fill="rgb(46,46,46)"/><path d=" M 23 12 C 23 14.208 21.208 16 19 16 C 16.792 16 15 14.208 15 12 C 15 9.792 16.792 8 19 8 C 21.208 8 23 9.792 23 12 Z  M 20.333 12 C 20.333 12.736 19.736 13.333 19 13.333 C 18.264 13.333 17.667 12.736 17.667 12 C 17.667 11.264 18.264 10.667 19 10.667 C 19.736 10.667 20.333 11.264 20.333 12 Z " fill-rule="evenodd" fill="rgb(46,46,46)"/><path d=" M 9 19 C 9 21.208 7.208 23 5 23 C 2.792 23 1 21.208 1 19 C 1 16.792 2.792 15 5 15 C 7.208 15 9 16.792 9 19 Z  M 6.333 19 C 6.333 19.736 5.736 20.333 5 20.333 C 4.264 20.333 3.667 19.736 3.667 19 C 3.667 18.264 4.264 17.667 5 17.667 C 5.736 17.667 6.333 18.264 6.333 19 Z " fill-rule="evenodd" fill="rgb(46,46,46)"/><path d=" M 17.953 9.455 L 17.142 11.284 L 6.172 6.42 L 6.983 4.591 L 17.953 9.455 Z  M 6.865 18.76 L 6.085 16.919 L 17.135 12.24 L 17.915 14.081 L 6.865 18.76 Z " fill-rule="evenodd" fill="rgb(46,46,46)"/></g></svg>