<?xml version="1.0" standalone="no"?><!-- Generator: Gravit.io --><svg xmlns="http://www.w3.org/2000/svg" xmlns:xlink="http://www.w3.org/1999/xlink" style="isolation:isolate" viewBox="0 0 24 24" width="24" height="24"><defs><clipPath id="_clipPath_3BTz6HFZSzaM5hEFj1tGU3FS4Nh7Likv"><rect width="24" height="24"/></clipPath></defs><g clip-path="url(#_clipPath_3BTz6HFZSzaM5hEFj1tGU3FS4Nh7Likv)"><path d=" M 1 12 C 1 5.929 5.929 1 12 1 C 18.071 1 23 5.929 23 12 C 23 18.071 18.071 23 12 23 C 5.929 23 1 18.071 1 12 Z  M 3 12 C 3 7.033 7.033 3 12 3 C 16.967 3 21 7.033 21 12 C 21 16.967 16.967 21 12 21 C 7.033 21 3 16.967 3 12 Z " fill-rule="evenodd" fill="rgb(46,46,46)"/><path d=" M 12.5 7.5 C 12.5 6.12 13.62 5 15 5 C 16.38 5 17.5 6.12 17.5 7.5 C 17.5 8.88 16.38 10 15 10 C 13.62 10 12.5 8.88 12.5 7.5 Z  M 14.167 7.5 C 14.167 7.04 14.54 6.667 15 6.667 C 15.46 6.667 15.833 7.04 15.833 7.5 C 15.833 7.96 15.46 8.333 15 8.333 C 14.54 8.333 14.167 7.96 14.167 7.5 Z " fill-rule="evenodd" fill="rgb(46,46,46)"/><path d=" M 12.5 16.5 C 12.5 15.12 13.62 14 15 14 C 16.38 14 17.5 15.12 17.5 16.5 C 17.5 17.88 16.38 19 15 19 C 13.62 19 12.5 17.88 12.5 16.5 Z  M 14.167 16.5 C 14.167 16.04 14.54 15.667 15 15.667 C 15.46 15.667 15.833 16.04 15.833 16.5 C 15.833 16.96 15.46 17.333 15 17.333 C 14.54 17.333 14.167 16.96 14.167 16.5 Z " fill-rule="evenodd" fill="rgb(46,46,46)"/><path d=" M 4 12.5 C 4 11.12 5.12 10 6.5 10 C 7.88 10 9 11.12 9 12.5 C 9 13.88 7.88 15 6.5 15 C 5.12 15 4 13.88 4 12.5 Z  M 5.667 12.5 C 5.667 12.04 6.04 11.667 6.5 11.667 C 6.96 11.667 7.333 12.04 7.333 12.5 C 7.333 12.96 6.96 13.333 6.5 13.333 C 6.04 13.333 5.667 12.96 5.667 12.5 Z " fill-rule="evenodd" fill="rgb(46,46,46)"/><rect x="7.491" y="8.83" width="6.607" height="2" transform="matrix(0.883,-0.469,0.469,0.883,-3.351,6.218)" fill="rgb(46,46,46)"/><rect x="7.356" y="13.515" width="6.331" height="2" transform="matrix(0.883,0.469,-0.469,0.883,8.046,-3.24)" fill="rgb(46,46,46)"/></g></svg>