<?xml version="1.0" standalone="no"?><!-- Generator: Gravit.io --><svg xmlns="http://www.w3.org/2000/svg" xmlns:xlink="http://www.w3.org/1999/xlink" style="isolation:isolate" viewBox="0 0 24 24" width="24" height="24"><defs><clipPath id="_clipPath_EzOWMTNpCOg8L3bluENEqQjA8I60fmT6"><rect width="24" height="24"/></clipPath></defs><g clip-path="url(#_clipPath_EzOWMTNpCOg8L3bluENEqQjA8I60fmT6)"><path d=" M 15 19 C 15 16.792 16.792 15 19 15 C 21.208 15 23 16.792 23 19 C 23 21.208 21.208 23 19 23 C 16.792 23 15 21.208 15 19 Z  M 17.667 19 C 17.667 18.264 18.264 17.667 19 17.667 C 19.736 17.667 20.333 18.264 20.333 19 C 20.333 19.736 19.736 20.333 19 20.333 C 18.264 20.333 17.667 19.736 17.667 19 Z " fill-rule="evenodd" fill="rgb(46,46,46)"/><path d=" M 1 12 C 1 9.792 2.792 8 5 8 C 7.208 8 9 9.792 9 12 C 9 14.208 7.208 16 5 16 C 2.792 16 1 14.208 1 12 Z  M 3.667 12 C 3.667 11.264 4.264 10.667 5 10.667 C 5.736 10.667 6.333 11.264 6.333 12 C 6.333 12.736 5.736 13.333 5 13.333 C 4.264 13.333 3.667 12.736 3.667 12 Z " fill-rule="evenodd" fill="rgb(46,46,46)"/><path d=" M 15 5 C 15 2.792 16.792 1 19 1 C 21.208 1 23 2.792 23 5 C 23 7.208 21.208 9 19 9 C 16.792 9 15 7.208 15 5 Z  M 17.667 5 C 17.667 4.264 18.264 3.667 19 3.667 C 19.736 3.667 20.333 4.264 20.333 5 C 20.333 5.736 19.736 6.333 19 6.333 C 18.264 6.333 17.667 5.736 17.667 5 Z " fill-rule="evenodd" fill="rgb(46,46,46)"/><path d=" M 6.047 14.545 L 6.858 12.716 L 17.828 17.58 L 17.017 19.409 L 6.047 14.545 Z  M 17.135 5.24 L 17.915 7.081 L 6.865 11.76 L 6.085 9.919 L 17.135 5.24 Z " fill-rule="evenodd" fill="rgb(46,46,46)"/></g></svg>