<?xml version="1.0" standalone="no"?><!-- Generator: Gravit.io --><svg xmlns="http://www.w3.org/2000/svg" xmlns:xlink="http://www.w3.org/1999/xlink" style="isolation:isolate" viewBox="0 0 24 24" width="24" height="24"><defs><clipPath id="_clipPath_wRVtx2BVfTXxO1QRUU3IhFdsoai6Ks5h"><rect width="24" height="24"/></clipPath></defs><g clip-path="url(#_clipPath_wRVtx2BVfTXxO1QRUU3IhFdsoai6Ks5h)"><g style="mix-blend-mode:multiply;"><path d=" M 1.996 10.098 L 8.038 9.325 C 8.312 9.29 8.629 9.058 8.746 8.808 L 11.741 2.414 C 11.858 2.164 12.051 2.163 12.171 2.411 L 15.282 8.837 C 15.402 9.086 15.722 9.315 15.996 9.349 L 22.004 10.101 C 22.278 10.135 22.331 10.309 22.122 10.49 L 17.678 14.341 C 17.469 14.522 17.345 14.888 17.401 15.159 L 18.699 21.471 C 18.755 21.742 18.605 21.851 18.364 21.716 L 12.436 18.386 C 12.195 18.251 11.805 18.251 11.564 18.386 L 5.626 21.717 C 5.385 21.852 5.235 21.742 5.291 21.471 L 6.596 15.151 C 6.652 14.881 6.528 14.514 6.32 14.334 L 1.878 10.488 C 1.669 10.308 1.722 10.133 1.996 10.098 Z " fill="none" vector-effect="non-scaling-stroke" stroke-width="2.632" stroke="rgb(0,0,0)" stroke-linejoin="miter" stroke-linecap="square" stroke-miterlimit="3"/></g></g></svg>