<?xml version="1.0" standalone="no"?><!-- Generator: Gravit.io --><svg xmlns="http://www.w3.org/2000/svg" xmlns:xlink="http://www.w3.org/1999/xlink" style="isolation:isolate" viewBox="0 0 24 24" width="24" height="24"><defs><clipPath id="_clipPath_KcnY9d639H0idyprmEqknizNsBsG0BTS"><rect width="24" height="24"/></clipPath></defs><g clip-path="url(#_clipPath_KcnY9d639H0idyprmEqknizNsBsG0BTS)"><g style="mix-blend-mode:multiply;"><path d=" M 12.118 1.973 L 14.538 9.039 C 14.627 9.3 14.924 9.511 15.2 9.509 L 22.026 9.475 C 22.302 9.474 22.352 9.614 22.138 9.788 L 16.609 14.285 C 16.395 14.459 16.279 14.816 16.35 15.083 L 18.187 21.979 C 18.258 22.245 18.138 22.325 17.919 22.157 L 12.396 17.904 C 12.177 17.735 11.822 17.735 11.603 17.903 L 6.064 22.157 C 5.845 22.325 5.726 22.246 5.798 21.979 L 7.669 15.101 C 7.741 14.835 7.626 14.478 7.411 14.305 L 1.863 9.828 C 1.648 9.655 1.698 9.514 1.974 9.514 L 8.802 9.512 C 9.078 9.512 9.373 9.299 9.46 9.037 L 11.799 1.975 C 11.886 1.713 12.029 1.712 12.118 1.973 Z " fill="none" vector-effect="non-scaling-stroke" stroke-width="2.632" stroke="rgb(0,0,0)" stroke-linejoin="miter" stroke-linecap="square" stroke-miterlimit="3"/></g></g></svg>