<?xml version="1.0" standalone="no"?><!-- Generator: Gravit.io --><svg xmlns="http://www.w3.org/2000/svg" xmlns:xlink="http://www.w3.org/1999/xlink" style="isolation:isolate" viewBox="0 0 24 24" width="24" height="24"><defs><clipPath id="_clipPath_vTNmNMTshDPns8j1PDmAgo1B1KMzSuFP"><rect width="24" height="24"/></clipPath></defs><g clip-path="url(#_clipPath_vTNmNMTshDPns8j1PDmAgo1B1KMzSuFP)"><path d=" M 7 6 L 17 6 C 17.552 6 18 6.448 18 7 L 18 17 C 18 17.552 17.552 18 17 18 L 7 18 C 6.448 18 6 17.552 6 17 L 6 7 C 6 6.448 6.448 6 7 6 Z  M 9 8 L 15 8 C 15.552 8 16 8.448 16 9 L 16 15 C 16 15.552 15.552 16 15 16 L 9 16 C 8.448 16 8 15.552 8 15 L 8 9 C 8 8.448 8.448 8 9 8 Z " fill-rule="evenodd" fill="rgb(46,46,46)"/></g></svg>