<?xml version="1.0" standalone="no"?><!-- Generator: Gravit.io --><svg xmlns="http://www.w3.org/2000/svg" xmlns:xlink="http://www.w3.org/1999/xlink" style="isolation:isolate" viewBox="0 0 24 24" width="24" height="24"><defs><clipPath id="_clipPath_pDqgJu6zRbsKtolTe7kmbBINfnkhcHnb"><rect width="24" height="24"/></clipPath></defs><g clip-path="url(#_clipPath_pDqgJu6zRbsKtolTe7kmbBINfnkhcHnb)"><path d=" M 13.737 1 C 13.061 1.008 12.411 1.361 11.934 1.849 L 1.704 12.088 C 0.708 13.092 0.809 14.544 1.752 15.527 L 8.385 22.169 C 9.344 23.136 10.705 23.339 11.716 22.35 L 22.359 11.703 C 22.715 11.352 22.961 11.082 23 10.384 L 22.999 3.51 C 23.036 2.116 21.933 0.985 20.55 1 L 13.737 1 Z  M 14.039 3.047 Q 14.168 3.043 19.876 3.017 C 20.112 3.014 20.498 3.049 20.752 3.295 C 21.006 3.542 21.006 3.975 21 4.213 Q 21.019 9.748 20.994 9.992 C 20.97 10.236 20.924 10.354 20.814 10.488 C 20.705 10.623 20.62 10.677 20.539 10.758 L 11.184 20.191 C 11.051 20.34 10.832 20.551 10.516 20.594 C 10.199 20.637 9.822 20.472 9.672 20.313 L 3.668 14.309 C 3.51 14.156 3.415 13.799 3.484 13.5 C 3.543 13.246 3.734 13.056 3.898 12.898 L 13.307 3.486 C 13.461 3.324 13.598 3.242 13.676 3.195 C 13.754 3.148 13.91 3.051 14.039 3.047 Z " fill="rgb(70,70,70)"/><path d=" M 13.797 7.25 C 13.797 5.594 15.141 4.25 16.797 4.25 C 18.453 4.25 19.797 5.594 19.797 7.25 C 19.797 8.906 18.453 10.25 16.797 10.25 C 15.141 10.25 13.797 8.906 13.797 7.25 Z  M 15.547 7.25 C 15.547 6.56 16.107 6 16.797 6 C 17.487 6 18.047 6.56 18.047 7.25 C 18.047 7.94 17.487 8.5 16.797 8.5 C 16.107 8.5 15.547 7.94 15.547 7.25 Z " fill-rule="evenodd" fill="rgb(70,70,70)"/></g></svg>