<?xml version="1.0" standalone="no"?><!-- Generator: Gravit.io --><svg xmlns="http://www.w3.org/2000/svg" xmlns:xlink="http://www.w3.org/1999/xlink" style="isolation:isolate" viewBox="0 0 24 24" width="24" height="24"><defs><clipPath id="_clipPath_v3d7wrsYnBsF0HceY85ExrHK0N66JwAZ"><rect width="24" height="24"/></clipPath></defs><g clip-path="url(#_clipPath_v3d7wrsYnBsF0HceY85ExrHK0N66JwAZ)"><path d=" M 5 10 L 7 10 L 17 10 L 19 10 L 19 22 C 19 22.552 18.552 23 18 23 L 6 23 C 5.448 23 5 22.552 5 22 L 5 10 Z  M 16.5 21 L 7.5 21 C 7.224 21 7 20.776 7 20.5 L 7 10 L 17 10 L 17 20.5 C 17 20.776 16.776 21 16.5 21 Z " fill-rule="evenodd" fill="rgb(46,46,46)"/><path d=" M 4 4 L 20 4 C 20.552 4 21 4.448 21 5 L 21 9 C 21 9.552 20.552 10 20 10 L 4 10 C 3.448 10 3 9.552 3 9 L 3 5 C 3 4.448 3.448 4 4 4 Z  M 5.2 6 L 18.8 6 C 18.91 6 19 6.09 19 6.2 L 19 7.8 C 19 7.91 18.91 8 18.8 8 L 5.2 8 C 5.09 8 5 7.91 5 7.8 L 5 6.2 C 5 6.09 5.09 6 5.2 6 Z " fill-rule="evenodd" fill="rgb(46,46,46)"/><path d=" M 14 4 L 16 4 L 16 2 C 16 1.448 15.552 1 15 1 L 9 1 C 8.448 1 8 1.448 8 2 L 8 4 L 10 4 L 10 3.2 C 10 3.09 10.09 3 10.2 3 L 13.8 3 C 13.91 3 14 3.09 14 3.2 L 14 4 Z " fill="rgb(46,46,46)"/><rect x="13.5" y="12.5" width="1" height="6" transform="matrix(1,0,0,1,0,0)" fill="rgb(46,46,46)"/><rect x="9.5" y="12.5" width="1" height="6" transform="matrix(1,0,0,1,0,0)" fill="rgb(46,46,46)"/></g></svg>