<?xml version="1.0" standalone="no"?><!-- Generator: Gravit.io --><svg xmlns="http://www.w3.org/2000/svg" xmlns:xlink="http://www.w3.org/1999/xlink" style="isolation:isolate" viewBox="0 0 24 24" width="24" height="24"><defs><clipPath id="_clipPath_jpqfH9JhxCBKrKz4Juhz8DHNdhas36zl"><rect width="24" height="24"/></clipPath></defs><g clip-path="url(#_clipPath_jpqfH9JhxCBKrKz4Juhz8DHNdhas36zl)"><path d=" M 13.414 10.964 L 12.707 10.257 C 12.317 9.867 11.683 9.867 11.293 10.257 L 10.586 10.964 L 4.222 17.328 C 3.832 17.719 3.832 18.352 4.222 18.743 L 4.222 18.743 C 4.612 19.133 5.246 19.133 5.636 18.743 L 12 12.379 L 18.364 18.743 C 18.754 19.133 19.388 19.133 19.778 18.743 L 19.778 18.743 C 20.168 18.352 20.168 17.719 19.778 17.328 L 13.414 10.964 Z " fill="rgb(46,46,46)"/><path d=" M 13.414 5.964 L 12.707 5.257 C 12.317 4.867 11.683 4.867 11.293 5.257 L 10.586 5.964 L 4.222 12.328 C 3.832 12.719 3.832 13.352 4.222 13.743 L 4.222 13.743 C 4.612 14.133 5.246 14.133 5.636 13.743 L 12 7.379 L 18.364 13.743 C 18.754 14.133 19.388 14.133 19.778 13.743 L 19.778 13.743 C 20.168 13.352 20.168 12.719 19.778 12.328 L 13.414 5.964 Z " fill="rgb(46,46,46)"/></g></svg>