<?xml version="1.0" standalone="no"?><!-- Generator: Gravit.io --><svg xmlns="http://www.w3.org/2000/svg" xmlns:xlink="http://www.w3.org/1999/xlink" style="isolation:isolate" viewBox="0 0 24 24" width="24" height="24"><defs><clipPath id="_clipPath_vetf4dVd7EVLmuyUdQXMo6Zw1mnykxNX"><rect width="24" height="24"/></clipPath></defs><g clip-path="url(#_clipPath_vetf4dVd7EVLmuyUdQXMo6Zw1mnykxNX)"><path d=" M 11.002 8.496 L 7.049 12.45 C 6.658 12.84 6.025 12.84 5.634 12.45 L 5.634 12.45 C 5.244 12.059 5.244 11.426 5.634 11.035 L 11.291 5.379 C 11.682 4.988 12.315 4.988 12.705 5.379 L 13.413 6.086 L 13.41 6.088 L 18.366 11.043 C 18.756 11.434 18.756 12.067 18.366 12.457 L 18.366 12.457 C 17.975 12.848 17.342 12.848 16.951 12.457 L 13.002 8.508 L 13.002 17.914 C 13.002 18.466 12.554 18.914 12.002 18.914 L 12.002 18.914 C 11.45 18.914 11.002 18.466 11.002 17.914 L 11.002 8.496 Z " fill="rgb(46,46,46)"/></g></svg>