<?xml version="1.0" standalone="no"?><!-- Generator: Gravit.io --><svg xmlns="http://www.w3.org/2000/svg" xmlns:xlink="http://www.w3.org/1999/xlink" style="isolation:isolate" viewBox="0 0 24 24" width="24" height="24"><defs><clipPath id="_clipPath_NpUOy09esLAqLtXPC2r744pRrR3155t4"><rect width="24" height="24"/></clipPath></defs><g clip-path="url(#_clipPath_NpUOy09esLAqLtXPC2r744pRrR3155t4)"><path d=" M 1 12 C 1 5.929 5.929 1 12 1 C 18.071 1 23 5.929 23 12 C 23 18.071 18.071 23 12 23 C 5.929 23 1 18.071 1 12 Z  M 3 12 C 3 7.033 7.033 3 12 3 C 16.967 3 21 7.033 21 12 C 21 16.967 16.967 21 12 21 C 7.033 21 3 16.967 3 12 Z " fill-rule="evenodd" fill="rgb(46,46,46)"/><path d=" M 11 9.35 L 8.461 11.889 C 8.071 12.279 7.437 12.279 7.047 11.889 L 7.047 11.889 C 6.656 11.499 6.656 10.865 7.047 10.475 L 10.594 6.928 L 10.589 6.924 L 11.297 6.217 C 11.687 5.826 12.321 5.826 12.711 6.217 L 16.953 10.459 C 17.344 10.849 17.344 11.483 16.953 11.873 L 16.953 11.873 C 16.563 12.264 15.929 12.264 15.539 11.873 L 13 9.334 L 13 17.076 C 13 17.628 12.552 18.076 12 18.076 L 12 18.076 C 11.448 18.076 11 17.628 11 17.076 L 11 9.35 Z " fill="rgb(46,46,46)"/></g></svg>