<?xml version="1.0" standalone="no"?><!-- Generator: Gravit.io --><svg xmlns="http://www.w3.org/2000/svg" xmlns:xlink="http://www.w3.org/1999/xlink" style="isolation:isolate" viewBox="0 0 24 24" width="24" height="24"><defs><clipPath id="_clipPath_KIyPQKzhPQ5nlNh4cSC9ruIP6MVUbm6b"><rect width="24" height="24"/></clipPath></defs><g clip-path="url(#_clipPath_KIyPQKzhPQ5nlNh4cSC9ruIP6MVUbm6b)"><path d=" M 8.5 7.5 C 8.5 5.568 10.068 4 12 4 C 13.932 4 15.5 5.568 15.5 7.5 C 15.5 9.432 13.932 11 12 11 C 10.068 11 8.5 9.432 8.5 7.5 Z " fill="rgb(0,0,0)"/><path d=" M 8.193 11 C 5.126 12.583 3 16.02 3 20 L 12 20 L 21 20 C 21 16.02 18.874 12.583 15.807 11 C 14.773 12.05 13.459 12.686 12 12.686 C 10.541 12.686 9.227 12.05 8.193 11 Z " fill="rgb(0,0,0)"/></g></svg>