<?xml version="1.0" standalone="no"?><!-- Generator: Gravit.io --><svg xmlns="http://www.w3.org/2000/svg" xmlns:xlink="http://www.w3.org/1999/xlink" style="isolation:isolate" viewBox="0 0 24 24" width="24" height="24"><defs><clipPath id="_clipPath_U6U8rfEf0SuQfMC78Ec8Zr4Eez6oKTE5"><rect width="24" height="24"/></clipPath></defs><g clip-path="url(#_clipPath_U6U8rfEf0SuQfMC78Ec8Zr4Eez6oKTE5)"><path d=" M 2 12 C 2 6.481 6.481 2 12 2 C 17.519 2 22 6.481 22 12 C 22 17.519 17.519 22 12 22 C 6.481 22 2 17.519 2 12 Z " fill="rgb(255,255,255)" vector-effect="non-scaling-stroke" stroke-width="1.5" stroke="rgb(0,0,0)" stroke-linejoin="miter" stroke-linecap="square" stroke-miterlimit="3"/><path d=" M 9.5 7.5 C 9.5 6.12 10.62 5 12 5 C 13.38 5 14.5 6.12 14.5 7.5 C 14.5 8.88 13.38 10 12 10 C 10.62 10 9.5 8.88 9.5 7.5 Z " fill="rgb(0,0,0)"/><path d=" M 9.309 10 C 7.346 11.1 6 13.375 6 16 L 12 16 L 18 16 C 18 13.375 16.654 11.1 14.691 10 C 13.93 10.74 13.006 11.199 12 11.199 C 10.994 11.199 10.07 10.74 9.309 10 Z " fill="rgb(0,0,0)"/></g></svg>