<?xml version="1.0" standalone="no"?><!-- Generator: Gravit.io --><svg xmlns="http://www.w3.org/2000/svg" xmlns:xlink="http://www.w3.org/1999/xlink" style="isolation:isolate" viewBox="0 0 24 24" width="24" height="24"><defs><clipPath id="_clipPath_dVm4ahX5t1y8nxfFy0KXd3dCG7qSDgaF"><rect width="24" height="24"/></clipPath></defs><g clip-path="url(#_clipPath_dVm4ahX5t1y8nxfFy0KXd3dCG7qSDgaF)"><path d=" M 19.531 8.805 C 18.467 7.695 15.088 5.75 11.818 5.75 C 8.464 5.75 5.459 7.254 4.501 8.31 C 4.13 8.719 4.144 9.365 4.532 9.753 L 4.532 9.753 C 4.919 10.14 5.536 10.124 5.909 9.717 C 6.555 9.011 9.04 7.75 11.818 7.75 Q 14.673 7.75 18.257 10.288 C 18.654 10.569 19.207 10.478 19.491 10.084 Q 19.53 10.031 19.578 9.972 C 19.849 9.638 19.828 9.115 19.531 8.805 Z  M 17.072 10.637 C 16.28 9.764 14.166 8.75 11.818 8.75 C 9.332 8.75 7.11 9.886 6.614 10.422 C 6.24 10.828 6.25 11.471 6.638 11.859 L 6.638 11.859 C 7.025 12.246 7.65 12.238 8.034 11.841 C 8.241 11.626 9.928 10.75 11.818 10.75 C 13.614 10.75 15.228 11.541 15.668 12.042 C 16.032 12.457 16.644 12.477 17.035 12.087 L 17.037 12.085 C 17.427 11.694 17.443 11.046 17.072 10.637 Z  M 14.969 12.743 C 14.701 12.43 13.339 11.75 11.818 11.75 C 10.365 11.75 9.055 12.371 8.819 12.627 C 8.445 13.033 8.458 13.68 8.849 14.07 L 8.85 14.071 C 9.241 14.462 9.804 14.496 10.108 14.148 C 10.108 14.148 10.917 13.75 11.818 13.75 C 12.787 13.75 13.649 14.21 13.649 14.21 C 13.952 14.604 14.514 14.607 14.905 14.217 L 14.912 14.21 C 15.302 13.819 15.328 13.162 14.969 12.743 Z " fill-rule="evenodd" fill="rgb(23,23,23)"/><path d=" M 10.5 16.75 C 10.5 15.922 11.172 15.25 12 15.25 C 12.828 15.25 13.5 15.922 13.5 16.75 C 13.5 17.578 12.828 18.25 12 18.25 C 11.172 18.25 10.5 17.578 10.5 16.75 Z " fill="rgb(23,23,23)"/></g></svg>