<?xml version="1.0" standalone="no"?><!-- Generator: Gravit.io --><svg xmlns="http://www.w3.org/2000/svg" xmlns:xlink="http://www.w3.org/1999/xlink" style="isolation:isolate" viewBox="0 0 24 24" width="24" height="24"><defs><clipPath id="_clipPath_vWXq4ySUTcjGR6dXWMNvr64laqK941Og"><rect width="24" height="24"/></clipPath></defs><g clip-path="url(#_clipPath_vWXq4ySUTcjGR6dXWMNvr64laqK941Og)"><path d=" M 6.106 4 L 17.894 4 C 20.712 4 23 6.288 23 9.106 L 23 14.894 C 23 17.712 20.712 20 17.894 20 L 6.106 20 C 3.288 20 1 17.712 1 14.894 L 1 9.106 C 1 6.288 3.288 4 6.106 4 Z " fill="rgb(46,46,46)"/><path d=" M 14.882 12.52 L 12.252 14.012 L 9.622 15.505 C 9.142 15.777 8.754 15.55 8.756 14.998 L 8.769 11.998 L 8.781 8.998 C 8.783 8.446 9.173 8.222 9.651 8.499 L 12.269 10.012 L 14.887 11.526 C 15.364 11.802 15.362 12.248 14.882 12.52 Z " fill="rgb(255,255,255)"/></g></svg>